<mxfile host="app.diagrams.net" modified="2023-06-16T17:09:42.065Z" agent="Mozilla/5.0 (X11; Linux x86_64) AppleWebKit/537.36 (KHTML, like Gecko) Chrome/112.0.0.0 Safari/537.36" etag="sVdqq8bbsH_aXFrcW5Ce" version="21.4.0" type="github">
  <diagram name="RIONORTE" id="onzbQbfF4RDAJLAgEAU8">
    <mxGraphModel dx="7985" dy="3888" grid="1" gridSize="10" guides="1" tooltips="1" connect="1" arrows="1" fold="1" page="0" pageScale="1" pageWidth="827" pageHeight="1169" math="0" shadow="0">
      <root>
        <mxCell id="0" />
        <mxCell id="1" parent="0" />
        <mxCell id="0F72Bn0jdp5sBGRfY1L6-18" value="&lt;b style=&quot;border-color: var(--border-color); font-size: 35px;&quot;&gt;&lt;font style=&quot;border-color: var(--border-color); font-size: 35px;&quot;&gt;OI&lt;/font&gt;&lt;/b&gt;" style="rounded=0;orthogonalLoop=1;jettySize=auto;html=1;strokeWidth=7;endArrow=none;endFill=0;strokeColor=#c2c1c2;shape=link;fontSize=35;fontFamily=Roboto;fontSource=https://fonts.googleapis.com/css?family=Roboto;labelBackgroundColor=#181B1F;entryX=-0.033;entryY=0.402;entryDx=0;entryDy=0;entryPerimeter=0;exitX=0.615;exitY=0.621;exitDx=0;exitDy=0;exitPerimeter=0;" edge="1" parent="1" target="0F72Bn0jdp5sBGRfY1L6-19">
          <mxGeometry relative="1" as="geometry">
            <mxPoint x="-1490" y="1256.8199999999997" as="targetPoint" />
            <mxPoint x="-2215.024" y="1230.0000000000002" as="sourcePoint" />
          </mxGeometry>
        </mxCell>
        <mxCell id="0F72Bn0jdp5sBGRfY1L6-19" value="" style="sketch=0;pointerEvents=1;shadow=0;dashed=0;html=1;strokeColor=none;fillColor=#434445;aspect=fixed;labelPosition=center;verticalLabelPosition=bottom;verticalAlign=top;align=center;outlineConnect=0;shape=mxgraph.vvd.vpn;fontSize=35;fontFamily=Roboto;fontSource=https://fonts.googleapis.com/css?family=Roboto;fontColor=#E6E6E6;labelBackgroundColor=#181B1F;" vertex="1" parent="1">
          <mxGeometry x="-1480" y="1290.32" width="60" height="60" as="geometry" />
        </mxCell>
        <mxCell id="0F72Bn0jdp5sBGRfY1L6-1" value="&lt;b style=&quot;border-color: var(--border-color); font-size: 35px;&quot;&gt;&lt;font style=&quot;border-color: var(--border-color); font-size: 35px;&quot;&gt;OI&lt;/font&gt;&lt;/b&gt;" style="rounded=0;orthogonalLoop=1;jettySize=auto;html=1;strokeWidth=7;endArrow=none;endFill=0;strokeColor=#c2c1c2;shape=link;fontSize=35;fontFamily=Roboto;fontSource=https://fonts.googleapis.com/css?family=Roboto;exitX=0.466;exitY=0.548;exitDx=0;exitDy=0;exitPerimeter=0;labelBackgroundColor=#181B1F;" edge="1" parent="1" source="8FgwcvRIyHQLVMrllgTb-44">
          <mxGeometry relative="1" as="geometry">
            <mxPoint x="130" y="90" as="targetPoint" />
            <mxPoint x="763" y="40" as="sourcePoint" />
          </mxGeometry>
        </mxCell>
        <mxCell id="ArYwc4VSTUIGlC5Kt4IR-6" value="&lt;b style=&quot;border-color: var(--border-color); font-size: 35px;&quot;&gt;&lt;font style=&quot;border-color: var(--border-color); font-size: 35px;&quot;&gt;MVX&lt;/font&gt;&lt;/b&gt;" style="rounded=0;orthogonalLoop=1;jettySize=auto;html=1;strokeWidth=7;endArrow=none;endFill=0;strokeColor=#c2c1c2;shape=link;fontSize=35;fontFamily=Roboto;fontSource=https://fonts.googleapis.com/css?family=Roboto;exitX=0.557;exitY=0.438;exitDx=0;exitDy=0;exitPerimeter=0;labelBackgroundColor=#181B1F;entryX=0.854;entryY=1.045;entryDx=0;entryDy=0;width=6.4705882352941195;entryPerimeter=0;" parent="1" source="kMCeNx05lhO0hg5yUVcD-10" target="ArYwc4VSTUIGlC5Kt4IR-33" edge="1">
          <mxGeometry relative="1" as="geometry">
            <mxPoint x="-315.44" y="700" as="targetPoint" />
            <mxPoint x="-1773.04" y="643" as="sourcePoint" />
          </mxGeometry>
        </mxCell>
        <mxCell id="ArYwc4VSTUIGlC5Kt4IR-37" style="rounded=0;orthogonalLoop=1;jettySize=auto;html=1;strokeWidth=7;endArrow=none;endFill=0;strokeColor=#c2c1c2;shape=link;fontSize=35;fontFamily=Roboto;fontSource=https://fonts.googleapis.com/css?family=Roboto;labelBackgroundColor=#181B1F;exitX=0.516;exitY=0.599;exitDx=0;exitDy=0;exitPerimeter=0;entryX=0.869;entryY=-0.059;entryDx=0;entryDy=0;entryPerimeter=0;" parent="1" source="47inE0um5gzFqJknWhK_-25" target="ArYwc4VSTUIGlC5Kt4IR-33" edge="1">
          <mxGeometry relative="1" as="geometry">
            <mxPoint x="-1330" y="1140" as="targetPoint" />
            <mxPoint x="-435" y="340" as="sourcePoint" />
          </mxGeometry>
        </mxCell>
        <mxCell id="ArYwc4VSTUIGlC5Kt4IR-38" style="rounded=0;orthogonalLoop=1;jettySize=auto;html=1;strokeWidth=7;endArrow=none;endFill=0;strokeColor=#c2c1c2;shape=link;fontSize=35;fontFamily=Roboto;fontSource=https://fonts.googleapis.com/css?family=Roboto;labelBackgroundColor=#181B1F;exitX=0.508;exitY=0.609;exitDx=0;exitDy=0;exitPerimeter=0;entryX=0.605;entryY=-0.014;entryDx=0;entryDy=0;entryPerimeter=0;" parent="1" source="47inE0um5gzFqJknWhK_-25" target="ArYwc4VSTUIGlC5Kt4IR-33" edge="1">
          <mxGeometry relative="1" as="geometry">
            <mxPoint x="-1350" y="1050" as="targetPoint" />
            <mxPoint x="-465" y="350" as="sourcePoint" />
          </mxGeometry>
        </mxCell>
        <mxCell id="ArYwc4VSTUIGlC5Kt4IR-36" style="rounded=0;orthogonalLoop=1;jettySize=auto;html=1;strokeWidth=7;endArrow=none;endFill=0;strokeColor=#c2c1c2;shape=link;fontSize=35;fontFamily=Roboto;fontSource=https://fonts.googleapis.com/css?family=Roboto;labelBackgroundColor=#181B1F;exitX=0.508;exitY=0.577;exitDx=0;exitDy=0;exitPerimeter=0;entryX=0.361;entryY=-0.036;entryDx=0;entryDy=0;entryPerimeter=0;" parent="1" source="47inE0um5gzFqJknWhK_-25" target="ArYwc4VSTUIGlC5Kt4IR-33" edge="1">
          <mxGeometry relative="1" as="geometry">
            <mxPoint x="-1350" y="970" as="targetPoint" />
            <mxPoint x="-545" y="280" as="sourcePoint" />
            <Array as="points">
              <mxPoint x="-690" y="260" />
            </Array>
          </mxGeometry>
        </mxCell>
        <mxCell id="ArYwc4VSTUIGlC5Kt4IR-33" value="" style="rounded=1;whiteSpace=wrap;html=1;fillColor=none;strokeWidth=3;strokeColor=#E6E6E6;labelPosition=center;verticalLabelPosition=top;align=center;verticalAlign=bottom;labelBackgroundColor=#181B1F;fontSize=35;" parent="1" vertex="1">
          <mxGeometry x="-895.44" y="420" width="440" height="110" as="geometry" />
        </mxCell>
        <mxCell id="ArYwc4VSTUIGlC5Kt4IR-25" value="" style="rounded=1;whiteSpace=wrap;html=1;fillColor=none;strokeWidth=3;strokeColor=#E6E6E6;labelPosition=center;verticalLabelPosition=top;align=center;verticalAlign=bottom;labelBackgroundColor=#181B1F;fontSize=35;" parent="1" vertex="1">
          <mxGeometry x="35" y="-410" width="110" height="390" as="geometry" />
        </mxCell>
        <mxCell id="ArYwc4VSTUIGlC5Kt4IR-23" value="" style="rounded=1;whiteSpace=wrap;html=1;fillColor=none;strokeWidth=3;strokeColor=#E6E6E6;labelPosition=center;verticalLabelPosition=top;align=center;verticalAlign=bottom;labelBackgroundColor=#181B1F;fontSize=35;" parent="1" vertex="1">
          <mxGeometry x="40" y="-820" width="100" height="400" as="geometry" />
        </mxCell>
        <mxCell id="ArYwc4VSTUIGlC5Kt4IR-21" style="rounded=0;orthogonalLoop=1;jettySize=auto;html=1;strokeWidth=7;endArrow=none;endFill=0;strokeColor=#c2c1c2;shape=link;fontSize=35;fontFamily=Roboto;fontSource=https://fonts.googleapis.com/css?family=Roboto;labelBackgroundColor=#181B1F;exitX=0.311;exitY=0.754;exitDx=0;exitDy=0;exitPerimeter=0;entryX=1.022;entryY=0.848;entryDx=0;entryDy=0;entryPerimeter=0;" parent="1" source="47inE0um5gzFqJknWhK_-25" target="ArYwc4VSTUIGlC5Kt4IR-17" edge="1">
          <mxGeometry relative="1" as="geometry">
            <mxPoint x="-1380" y="320" as="targetPoint" />
            <mxPoint x="-729" y="198" as="sourcePoint" />
          </mxGeometry>
        </mxCell>
        <mxCell id="ArYwc4VSTUIGlC5Kt4IR-17" value="" style="rounded=1;whiteSpace=wrap;html=1;fillColor=none;strokeWidth=3;strokeColor=#E6E6E6;labelPosition=center;verticalLabelPosition=top;align=center;verticalAlign=bottom;labelBackgroundColor=#181B1F;fontSize=35;" parent="1" vertex="1">
          <mxGeometry x="-1500" y="40" width="120" height="370" as="geometry" />
        </mxCell>
        <mxCell id="ArYwc4VSTUIGlC5Kt4IR-7" value="&lt;b style=&quot;border-color: var(--border-color); font-size: 35px;&quot;&gt;&lt;font style=&quot;border-color: var(--border-color); font-size: 35px;&quot;&gt;OI&lt;/font&gt;&lt;/b&gt;" style="rounded=0;orthogonalLoop=1;jettySize=auto;html=1;strokeWidth=7;endArrow=none;endFill=0;strokeColor=#c2c1c2;shape=link;fontSize=35;fontFamily=Roboto;fontSource=https://fonts.googleapis.com/css?family=Roboto;exitX=0.442;exitY=0.438;exitDx=0;exitDy=0;exitPerimeter=0;labelBackgroundColor=#181B1F;entryX=0.124;entryY=1.045;entryDx=0;entryDy=0;entryPerimeter=0;" parent="1" source="kMCeNx05lhO0hg5yUVcD-10" target="ArYwc4VSTUIGlC5Kt4IR-33" edge="1">
          <mxGeometry relative="1" as="geometry">
            <mxPoint x="-1555.44" y="880" as="targetPoint" />
            <mxPoint x="-1753.44" y="728" as="sourcePoint" />
          </mxGeometry>
        </mxCell>
        <mxCell id="kMCeNx05lhO0hg5yUVcD-106" value="&lt;b style=&quot;border-color: var(--border-color); font-size: 35px;&quot;&gt;&lt;font style=&quot;border-color: var(--border-color); font-size: 35px;&quot;&gt;SpeedWeb&lt;/font&gt;&lt;/b&gt;" style="rounded=0;orthogonalLoop=1;jettySize=auto;html=1;strokeWidth=7;endArrow=none;endFill=0;strokeColor=#c2c1c2;shape=link;fontSize=35;fontFamily=Roboto;fontSource=https://fonts.googleapis.com/css?family=Roboto;labelBackgroundColor=#181B1F;entryX=0.028;entryY=0.476;entryDx=0;entryDy=0;exitX=0.85;exitY=0.625;exitDx=0;exitDy=0;exitPerimeter=0;entryPerimeter=0;" parent="1" source="93xmVZuqs_C2BlXIlUVw-19" target="93xmVZuqs_C2BlXIlUVw-10" edge="1">
          <mxGeometry x="0.0062" relative="1" as="geometry">
            <mxPoint x="-1480" y="531.5000000000002" as="targetPoint" />
            <mxPoint x="-1738" y="450" as="sourcePoint" />
            <mxPoint as="offset" />
          </mxGeometry>
        </mxCell>
        <mxCell id="kMCeNx05lhO0hg5yUVcD-105" value="&lt;b style=&quot;border-color: var(--border-color); font-size: 35px;&quot;&gt;&lt;font style=&quot;border-color: var(--border-color); font-size: 35px;&quot;&gt;OI&lt;/font&gt;&lt;/b&gt;" style="rounded=0;orthogonalLoop=1;jettySize=auto;html=1;strokeWidth=7;endArrow=none;endFill=0;strokeColor=#c2c1c2;shape=link;fontSize=35;fontFamily=Roboto;fontSource=https://fonts.googleapis.com/css?family=Roboto;labelBackgroundColor=#181B1F;entryX=0;entryY=0.75;entryDx=0;entryDy=0;exitX=0.874;exitY=0.706;exitDx=0;exitDy=0;exitPerimeter=0;" parent="1" source="47inE0um5gzFqJknWhK_-15" target="kMCeNx05lhO0hg5yUVcD-1" edge="1">
          <mxGeometry relative="1" as="geometry">
            <mxPoint x="-1480" y="-562.5" as="targetPoint" />
            <mxPoint x="-1728" y="-507.5" as="sourcePoint" />
          </mxGeometry>
        </mxCell>
        <mxCell id="kMCeNx05lhO0hg5yUVcD-99" style="rounded=0;orthogonalLoop=1;jettySize=auto;html=1;strokeWidth=7;endArrow=none;endFill=0;strokeColor=#c2c1c2;shape=link;fontSize=35;fontFamily=Roboto;fontSource=https://fonts.googleapis.com/css?family=Roboto;labelBackgroundColor=#181B1F;entryX=1.022;entryY=0.448;entryDx=0;entryDy=0;exitX=0.313;exitY=0.76;exitDx=0;exitDy=0;exitPerimeter=0;entryPerimeter=0;" parent="1" source="47inE0um5gzFqJknWhK_-25" target="93xmVZuqs_C2BlXIlUVw-26" edge="1">
          <mxGeometry relative="1" as="geometry">
            <mxPoint x="-1403.8267" y="425.64999999999986" as="targetPoint" />
            <mxPoint x="-697" y="211" as="sourcePoint" />
          </mxGeometry>
        </mxCell>
        <mxCell id="kMCeNx05lhO0hg5yUVcD-101" style="rounded=0;orthogonalLoop=1;jettySize=auto;html=1;strokeWidth=7;endArrow=none;endFill=0;strokeColor=#c2c1c2;shape=link;fontSize=35;fontFamily=Roboto;fontSource=https://fonts.googleapis.com/css?family=Roboto;labelBackgroundColor=#181B1F;entryX=1.028;entryY=0.504;entryDx=0;entryDy=0;exitX=0.386;exitY=0.74;exitDx=0;exitDy=0;exitPerimeter=0;entryPerimeter=0;" parent="1" source="47inE0um5gzFqJknWhK_-25" target="93xmVZuqs_C2BlXIlUVw-10" edge="1">
          <mxGeometry relative="1" as="geometry">
            <mxPoint x="-1403.8267" y="497.28" as="targetPoint" />
            <mxPoint x="-677" y="231" as="sourcePoint" />
          </mxGeometry>
        </mxCell>
        <mxCell id="kMCeNx05lhO0hg5yUVcD-91" style="rounded=0;orthogonalLoop=1;jettySize=auto;html=1;strokeWidth=7;endArrow=none;endFill=0;strokeColor=#c2c1c2;shape=link;fontSize=35;fontFamily=Roboto;fontSource=https://fonts.googleapis.com/css?family=Roboto;exitX=0.785;exitY=0.229;exitDx=0;exitDy=0;exitPerimeter=0;labelBackgroundColor=#181B1F;entryX=-0.026;entryY=0.614;entryDx=0;entryDy=0;entryPerimeter=0;" parent="1" source="47inE0um5gzFqJknWhK_-25" target="ArYwc4VSTUIGlC5Kt4IR-25" edge="1">
          <mxGeometry relative="1" as="geometry">
            <mxPoint x="-20" y="-168" as="targetPoint" />
            <mxPoint x="-667" y="207.5" as="sourcePoint" />
          </mxGeometry>
        </mxCell>
        <mxCell id="kMCeNx05lhO0hg5yUVcD-90" style="rounded=0;orthogonalLoop=1;jettySize=auto;html=1;strokeWidth=7;endArrow=none;endFill=0;strokeColor=#c2c1c2;shape=link;fontSize=35;fontFamily=Roboto;fontSource=https://fonts.googleapis.com/css?family=Roboto;exitX=0.793;exitY=0.208;exitDx=0;exitDy=0;exitPerimeter=0;labelBackgroundColor=#181B1F;entryX=-0.026;entryY=0.343;entryDx=0;entryDy=0;entryPerimeter=0;" parent="1" source="47inE0um5gzFqJknWhK_-25" target="ArYwc4VSTUIGlC5Kt4IR-25" edge="1">
          <mxGeometry relative="1" as="geometry">
            <mxPoint x="10" y="-250" as="targetPoint" />
            <mxPoint x="-660" y="20.5" as="sourcePoint" />
          </mxGeometry>
        </mxCell>
        <mxCell id="kMCeNx05lhO0hg5yUVcD-78" style="rounded=0;orthogonalLoop=1;jettySize=auto;html=1;strokeWidth=7;endArrow=none;endFill=0;strokeColor=#c2c1c2;shape=link;fontSize=35;fontFamily=Roboto;fontSource=https://fonts.googleapis.com/css?family=Roboto;exitX=0.342;exitY=0.119;exitDx=0;exitDy=0;exitPerimeter=0;labelBackgroundColor=#181B1F;entryX=0;entryY=0.395;entryDx=0;entryDy=0;entryPerimeter=0;" parent="1" source="47inE0um5gzFqJknWhK_-25" target="ArYwc4VSTUIGlC5Kt4IR-23" edge="1">
          <mxGeometry relative="1" as="geometry">
            <mxPoint x="47.039999999999964" y="-575.8900000000001" as="targetPoint" />
            <mxPoint x="-670" y="-317" as="sourcePoint" />
          </mxGeometry>
        </mxCell>
        <mxCell id="kMCeNx05lhO0hg5yUVcD-79" style="rounded=0;orthogonalLoop=1;jettySize=auto;html=1;strokeWidth=7;endArrow=none;endFill=0;strokeColor=#c2c1c2;shape=link;fontSize=35;fontFamily=Roboto;fontSource=https://fonts.googleapis.com/css?family=Roboto;exitX=0.216;exitY=0.087;exitDx=0;exitDy=0;exitPerimeter=0;labelBackgroundColor=#181B1F;entryX=-0.021;entryY=0.12;entryDx=0;entryDy=0;entryPerimeter=0;" parent="1" source="47inE0um5gzFqJknWhK_-25" target="ArYwc4VSTUIGlC5Kt4IR-23" edge="1">
          <mxGeometry relative="1" as="geometry">
            <mxPoint x="48" y="-637.0800000000002" as="targetPoint" />
            <mxPoint x="-780" y="-218.5" as="sourcePoint" />
          </mxGeometry>
        </mxCell>
        <mxCell id="kMCeNx05lhO0hg5yUVcD-24" style="rounded=0;orthogonalLoop=1;jettySize=auto;html=1;strokeWidth=7;endArrow=none;endFill=0;strokeColor=#c2c1c2;shape=link;fontSize=35;fontFamily=Roboto;fontSource=https://fonts.googleapis.com/css?family=Roboto;exitX=0.02;exitY=0.614;exitDx=0;exitDy=0;exitPerimeter=0;labelBackgroundColor=#181B1F;entryX=0.99;entryY=0.653;entryDx=0;entryDy=0;entryPerimeter=0;" parent="1" source="47inE0um5gzFqJknWhK_-25" target="93xmVZuqs_C2BlXIlUVw-7" edge="1">
          <mxGeometry relative="1" as="geometry">
            <mxPoint x="-1144.9" y="-28" as="targetPoint" />
            <mxPoint x="-799.9" y="203" as="sourcePoint" />
          </mxGeometry>
        </mxCell>
        <mxCell id="kMCeNx05lhO0hg5yUVcD-18" style="rounded=0;orthogonalLoop=1;jettySize=auto;html=1;strokeWidth=7;endArrow=none;endFill=0;strokeColor=#c2c1c2;shape=link;fontSize=35;fontFamily=Roboto;fontSource=https://fonts.googleapis.com/css?family=Roboto;exitX=0.83;exitY=0.206;exitDx=0;exitDy=0;exitPerimeter=0;labelBackgroundColor=#181B1F;entryX=1.004;entryY=0.204;entryDx=0;entryDy=0;entryPerimeter=0;" parent="1" source="47inE0um5gzFqJknWhK_-25" target="kMCeNx05lhO0hg5yUVcD-1" edge="1">
          <mxGeometry relative="1" as="geometry">
            <mxPoint x="-890" y="-610" as="targetPoint" />
            <mxPoint x="-567" y="50" as="sourcePoint" />
          </mxGeometry>
        </mxCell>
        <mxCell id="kMCeNx05lhO0hg5yUVcD-22" style="rounded=0;orthogonalLoop=1;jettySize=auto;html=1;strokeWidth=7;endArrow=none;endFill=0;strokeColor=#c2c1c2;shape=link;fontSize=35;fontFamily=Roboto;fontSource=https://fonts.googleapis.com/css?family=Roboto;exitX=0.488;exitY=0.106;exitDx=0;exitDy=0;exitPerimeter=0;labelBackgroundColor=#181B1F;entryX=1;entryY=0.5;entryDx=0;entryDy=0;" parent="1" source="47inE0um5gzFqJknWhK_-25" target="kMCeNx05lhO0hg5yUVcD-1" edge="1">
          <mxGeometry relative="1" as="geometry">
            <mxPoint x="-970.6" y="-580" as="targetPoint" />
            <mxPoint x="-647.6" y="80" as="sourcePoint" />
          </mxGeometry>
        </mxCell>
        <mxCell id="kMCeNx05lhO0hg5yUVcD-47" style="rounded=0;orthogonalLoop=1;jettySize=auto;html=1;strokeWidth=7;endArrow=none;endFill=0;strokeColor=#c2c1c2;shape=link;fontSize=35;fontFamily=Roboto;fontSource=https://fonts.googleapis.com/css?family=Roboto;labelBackgroundColor=#181B1F;exitX=0.433;exitY=0.609;exitDx=0;exitDy=0;exitPerimeter=0;entryX=0.128;entryY=-0.025;entryDx=0;entryDy=0;entryPerimeter=0;" parent="1" source="47inE0um5gzFqJknWhK_-25" target="ArYwc4VSTUIGlC5Kt4IR-33" edge="1">
          <mxGeometry relative="1" as="geometry">
            <mxPoint x="-1360" y="870" as="targetPoint" />
            <mxPoint x="-608" y="411" as="sourcePoint" />
          </mxGeometry>
        </mxCell>
        <mxCell id="kMCeNx05lhO0hg5yUVcD-46" style="rounded=0;orthogonalLoop=1;jettySize=auto;html=1;strokeWidth=7;endArrow=none;endFill=0;strokeColor=#c2c1c2;shape=link;fontSize=35;fontFamily=Roboto;fontSource=https://fonts.googleapis.com/css?family=Roboto;labelBackgroundColor=#181B1F;exitX=0.347;exitY=1.04;exitDx=0;exitDy=0;exitPerimeter=0;entryX=1;entryY=0.517;entryDx=0;entryDy=0;entryPerimeter=0;" parent="1" source="47inE0um5gzFqJknWhK_-25" target="kMCeNx05lhO0hg5yUVcD-6" edge="1">
          <mxGeometry relative="1" as="geometry">
            <mxPoint x="-890" y="613" as="targetPoint" />
            <mxPoint x="-740" y="270" as="sourcePoint" />
          </mxGeometry>
        </mxCell>
        <mxCell id="kMCeNx05lhO0hg5yUVcD-45" style="rounded=0;orthogonalLoop=1;jettySize=auto;html=1;strokeWidth=7;endArrow=none;endFill=0;strokeColor=#c2c1c2;shape=link;fontSize=35;fontFamily=Roboto;fontSource=https://fonts.googleapis.com/css?family=Roboto;labelBackgroundColor=#181B1F;entryX=0.954;entryY=0.237;entryDx=0;entryDy=0;entryPerimeter=0;exitX=0.25;exitY=1;exitDx=0;exitDy=0;exitPerimeter=0;" parent="1" source="47inE0um5gzFqJknWhK_-25" target="kMCeNx05lhO0hg5yUVcD-7" edge="1">
          <mxGeometry relative="1" as="geometry">
            <mxPoint x="-920" y="512" as="targetPoint" />
            <mxPoint x="-608" y="411" as="sourcePoint" />
          </mxGeometry>
        </mxCell>
        <mxCell id="kMCeNx05lhO0hg5yUVcD-44" style="rounded=0;orthogonalLoop=1;jettySize=auto;html=1;strokeWidth=7;endArrow=none;endFill=0;strokeColor=#c2c1c2;shape=link;fontSize=35;fontFamily=Roboto;fontSource=https://fonts.googleapis.com/css?family=Roboto;labelBackgroundColor=#181B1F;exitX=0.217;exitY=0.624;exitDx=0;exitDy=0;exitPerimeter=0;entryX=1.008;entryY=0.616;entryDx=0;entryDy=0;entryPerimeter=0;" parent="1" source="47inE0um5gzFqJknWhK_-25" target="ArYwc4VSTUIGlC5Kt4IR-17" edge="1">
          <mxGeometry relative="1" as="geometry">
            <mxPoint x="-1340" y="340" as="targetPoint" />
            <mxPoint x="-638" y="319" as="sourcePoint" />
          </mxGeometry>
        </mxCell>
        <mxCell id="kMCeNx05lhO0hg5yUVcD-43" style="rounded=0;orthogonalLoop=1;jettySize=auto;html=1;strokeWidth=7;endArrow=none;endFill=0;strokeColor=#c2c1c2;shape=link;fontSize=35;fontFamily=Roboto;fontSource=https://fonts.googleapis.com/css?family=Roboto;labelBackgroundColor=#181B1F;entryX=1.022;entryY=0.376;entryDx=0;entryDy=0;entryPerimeter=0;exitX=0.123;exitY=0.674;exitDx=0;exitDy=0;exitPerimeter=0;" parent="1" source="47inE0um5gzFqJknWhK_-25" target="ArYwc4VSTUIGlC5Kt4IR-17" edge="1">
          <mxGeometry relative="1" as="geometry">
            <mxPoint x="-1363.4763" y="243.1199999999999" as="targetPoint" />
            <mxPoint x="-880" y="220" as="sourcePoint" />
          </mxGeometry>
        </mxCell>
        <mxCell id="kMCeNx05lhO0hg5yUVcD-42" style="rounded=0;orthogonalLoop=1;jettySize=auto;html=1;strokeWidth=7;endArrow=none;endFill=0;strokeColor=#c2c1c2;shape=link;fontSize=35;fontFamily=Roboto;fontSource=https://fonts.googleapis.com/css?family=Roboto;exitX=0.217;exitY=0.634;exitDx=0;exitDy=0;exitPerimeter=0;labelBackgroundColor=#181B1F;entryX=1.035;entryY=0.136;entryDx=0;entryDy=0;entryPerimeter=0;" parent="1" source="47inE0um5gzFqJknWhK_-25" target="ArYwc4VSTUIGlC5Kt4IR-17" edge="1">
          <mxGeometry relative="1" as="geometry">
            <mxPoint x="-1361.7277000000001" y="152.39999999999986" as="targetPoint" />
            <mxPoint x="-653" y="580" as="sourcePoint" />
          </mxGeometry>
        </mxCell>
        <mxCell id="kMCeNx05lhO0hg5yUVcD-41" style="rounded=0;orthogonalLoop=1;jettySize=auto;html=1;strokeWidth=7;endArrow=none;endFill=0;strokeColor=#c2c1c2;shape=link;fontSize=35;fontFamily=Roboto;fontSource=https://fonts.googleapis.com/css?family=Roboto;exitX=0.094;exitY=0.56;exitDx=0;exitDy=0;exitPerimeter=0;labelBackgroundColor=#181B1F;entryX=0.991;entryY=0.494;entryDx=0;entryDy=0;entryPerimeter=0;" parent="1" source="47inE0um5gzFqJknWhK_-25" target="93xmVZuqs_C2BlXIlUVw-6" edge="1">
          <mxGeometry relative="1" as="geometry">
            <mxPoint x="-1005.0999999999999" y="-35" as="targetPoint" />
            <mxPoint x="-687.9" y="520" as="sourcePoint" />
          </mxGeometry>
        </mxCell>
        <mxCell id="kMCeNx05lhO0hg5yUVcD-40" style="rounded=0;orthogonalLoop=1;jettySize=auto;html=1;strokeWidth=7;endArrow=none;endFill=0;strokeColor=#c2c1c2;shape=link;fontSize=35;fontFamily=Roboto;fontSource=https://fonts.googleapis.com/css?family=Roboto;exitX=0.142;exitY=0.26;exitDx=0;exitDy=0;exitPerimeter=0;labelBackgroundColor=#181B1F;entryX=1.002;entryY=0.54;entryDx=0;entryDy=0;entryPerimeter=0;" parent="1" source="47inE0um5gzFqJknWhK_-25" target="8FgwcvRIyHQLVMrllgTb-10" edge="1">
          <mxGeometry relative="1" as="geometry">
            <mxPoint x="-1050" y="-180" as="targetPoint" />
            <mxPoint x="-803" y="176.5" as="sourcePoint" />
          </mxGeometry>
        </mxCell>
        <mxCell id="kMCeNx05lhO0hg5yUVcD-39" style="rounded=0;orthogonalLoop=1;jettySize=auto;html=1;strokeWidth=7;endArrow=none;endFill=0;strokeColor=#c2c1c2;shape=link;fontSize=35;fontFamily=Roboto;fontSource=https://fonts.googleapis.com/css?family=Roboto;exitX=0.15;exitY=0.031;exitDx=0;exitDy=0;exitPerimeter=0;labelBackgroundColor=#181B1F;entryX=0.974;entryY=0.475;entryDx=0;entryDy=0;entryPerimeter=0;" parent="1" source="47inE0um5gzFqJknWhK_-25" target="8FgwcvRIyHQLVMrllgTb-13" edge="1">
          <mxGeometry relative="1" as="geometry">
            <mxPoint x="-1103" y="-485.5" as="targetPoint" />
            <mxPoint x="-760" y="176.5" as="sourcePoint" />
          </mxGeometry>
        </mxCell>
        <mxCell id="kMCeNx05lhO0hg5yUVcD-38" style="rounded=0;orthogonalLoop=1;jettySize=auto;html=1;strokeWidth=7;endArrow=none;endFill=0;strokeColor=#c2c1c2;shape=link;fontSize=35;fontFamily=Roboto;fontSource=https://fonts.googleapis.com/css?family=Roboto;exitX=0.202;exitY=0.092;exitDx=0;exitDy=0;exitPerimeter=0;labelBackgroundColor=#181B1F;entryX=1.025;entryY=0.827;entryDx=0;entryDy=0;entryPerimeter=0;" parent="1" source="47inE0um5gzFqJknWhK_-25" target="kMCeNx05lhO0hg5yUVcD-1" edge="1">
          <mxGeometry relative="1" as="geometry">
            <mxPoint x="-1040" y="-450" as="targetPoint" />
            <mxPoint x="-1074.9" y="17" as="sourcePoint" />
          </mxGeometry>
        </mxCell>
        <mxCell id="kMCeNx05lhO0hg5yUVcD-37" style="rounded=0;orthogonalLoop=1;jettySize=auto;html=1;strokeWidth=7;endArrow=none;endFill=0;strokeColor=#c2c1c2;shape=link;fontSize=35;fontFamily=Roboto;fontSource=https://fonts.googleapis.com/css?family=Roboto;exitX=0.293;exitY=0.919;exitDx=0;exitDy=0;exitPerimeter=0;labelBackgroundColor=#181B1F;entryX=0.057;entryY=0.083;entryDx=0;entryDy=0;entryPerimeter=0;" parent="1" source="47inE0um5gzFqJknWhK_-25" target="kMCeNx05lhO0hg5yUVcD-26" edge="1">
          <mxGeometry relative="1" as="geometry">
            <mxPoint x="-452" y="730" as="targetPoint" />
            <mxPoint x="-790" y="281" as="sourcePoint" />
          </mxGeometry>
        </mxCell>
        <mxCell id="kMCeNx05lhO0hg5yUVcD-36" style="rounded=0;orthogonalLoop=1;jettySize=auto;html=1;strokeWidth=7;endArrow=none;endFill=0;strokeColor=#c2c1c2;shape=link;fontSize=35;fontFamily=Roboto;fontSource=https://fonts.googleapis.com/css?family=Roboto;exitX=0.508;exitY=0.935;exitDx=0;exitDy=0;exitPerimeter=0;labelBackgroundColor=#181B1F;entryX=0.083;entryY=0.1;entryDx=0;entryDy=0;entryPerimeter=0;" parent="1" source="47inE0um5gzFqJknWhK_-25" target="kMCeNx05lhO0hg5yUVcD-21" edge="1">
          <mxGeometry relative="1" as="geometry">
            <mxPoint x="-443" y="636" as="targetPoint" />
            <mxPoint x="-760" y="300" as="sourcePoint" />
          </mxGeometry>
        </mxCell>
        <mxCell id="kMCeNx05lhO0hg5yUVcD-34" style="rounded=0;orthogonalLoop=1;jettySize=auto;html=1;strokeWidth=7;endArrow=none;endFill=0;strokeColor=#c2c1c2;shape=link;fontSize=35;fontFamily=Roboto;fontSource=https://fonts.googleapis.com/css?family=Roboto;exitX=0.855;exitY=1.054;exitDx=0;exitDy=0;exitPerimeter=0;labelBackgroundColor=#181B1F;entryX=0.013;entryY=0.473;entryDx=0;entryDy=0;entryPerimeter=0;" parent="1" source="47inE0um5gzFqJknWhK_-25" target="93xmVZuqs_C2BlXIlUVw-30" edge="1">
          <mxGeometry relative="1" as="geometry">
            <mxPoint x="-391" y="350" as="targetPoint" />
            <mxPoint x="-682" y="260" as="sourcePoint" />
          </mxGeometry>
        </mxCell>
        <mxCell id="kMCeNx05lhO0hg5yUVcD-33" style="rounded=0;orthogonalLoop=1;jettySize=auto;html=1;strokeWidth=7;endArrow=none;endFill=0;strokeColor=#c2c1c2;shape=link;fontSize=35;fontFamily=Roboto;fontSource=https://fonts.googleapis.com/css?family=Roboto;exitX=0.973;exitY=0.944;exitDx=0;exitDy=0;exitPerimeter=0;labelBackgroundColor=#181B1F;entryX=0.02;entryY=0.36;entryDx=0;entryDy=0;entryPerimeter=0;" parent="1" source="47inE0um5gzFqJknWhK_-25" target="93xmVZuqs_C2BlXIlUVw-29" edge="1">
          <mxGeometry relative="1" as="geometry">
            <mxPoint x="-432" y="360" as="targetPoint" />
            <mxPoint x="-720" y="355" as="sourcePoint" />
          </mxGeometry>
        </mxCell>
        <mxCell id="kMCeNx05lhO0hg5yUVcD-32" style="rounded=0;orthogonalLoop=1;jettySize=auto;html=1;strokeWidth=7;endArrow=none;endFill=0;strokeColor=#c2c1c2;shape=link;fontSize=35;fontFamily=Roboto;fontSource=https://fonts.googleapis.com/css?family=Roboto;exitX=0.941;exitY=0.729;exitDx=0;exitDy=0;exitPerimeter=0;labelBackgroundColor=#181B1F;entryX=-0.032;entryY=0.493;entryDx=0;entryDy=0;entryPerimeter=0;" parent="1" source="47inE0um5gzFqJknWhK_-25" target="8FgwcvRIyHQLVMrllgTb-52" edge="1">
          <mxGeometry relative="1" as="geometry">
            <mxPoint x="50" y="137.5" as="targetPoint" />
            <mxPoint x="-680" y="380" as="sourcePoint" />
          </mxGeometry>
        </mxCell>
        <mxCell id="kMCeNx05lhO0hg5yUVcD-31" style="rounded=0;orthogonalLoop=1;jettySize=auto;html=1;strokeWidth=7;endArrow=none;endFill=0;strokeColor=#c2c1c2;shape=link;fontSize=35;fontFamily=Roboto;fontSource=https://fonts.googleapis.com/css?family=Roboto;exitX=0.947;exitY=0.379;exitDx=0;exitDy=0;exitPerimeter=0;labelBackgroundColor=#181B1F;entryX=0.022;entryY=0.5;entryDx=0;entryDy=0;entryPerimeter=0;" parent="1" source="47inE0um5gzFqJknWhK_-25" target="93xmVZuqs_C2BlXIlUVw-3" edge="1">
          <mxGeometry relative="1" as="geometry">
            <mxPoint x="-360" y="32" as="targetPoint" />
            <mxPoint x="-657" y="339" as="sourcePoint" />
          </mxGeometry>
        </mxCell>
        <mxCell id="kMCeNx05lhO0hg5yUVcD-30" style="rounded=0;orthogonalLoop=1;jettySize=auto;html=1;strokeWidth=7;endArrow=none;endFill=0;strokeColor=#c2c1c2;shape=link;fontSize=35;fontFamily=Roboto;fontSource=https://fonts.googleapis.com/css?family=Roboto;exitX=0.968;exitY=0.231;exitDx=0;exitDy=0;exitPerimeter=0;labelBackgroundColor=#181B1F;entryX=-0.019;entryY=0.834;entryDx=0;entryDy=0;entryPerimeter=0;" parent="1" source="47inE0um5gzFqJknWhK_-25" target="ArYwc4VSTUIGlC5Kt4IR-25" edge="1">
          <mxGeometry relative="1" as="geometry">
            <mxPoint x="-20" y="-90" as="targetPoint" />
            <mxPoint x="-600" y="113" as="sourcePoint" />
          </mxGeometry>
        </mxCell>
        <mxCell id="kMCeNx05lhO0hg5yUVcD-29" style="rounded=0;orthogonalLoop=1;jettySize=auto;html=1;strokeWidth=7;endArrow=none;endFill=0;strokeColor=#c2c1c2;shape=link;fontSize=35;fontFamily=Roboto;fontSource=https://fonts.googleapis.com/css?family=Roboto;exitX=0.85;exitY=0.129;exitDx=0;exitDy=0;exitPerimeter=0;labelBackgroundColor=#181B1F;entryX=-0.012;entryY=0.14;entryDx=0;entryDy=0;entryPerimeter=0;" parent="1" source="47inE0um5gzFqJknWhK_-25" target="ArYwc4VSTUIGlC5Kt4IR-25" edge="1">
          <mxGeometry relative="1" as="geometry">
            <mxPoint x="10" y="-321" as="targetPoint" />
            <mxPoint x="-655" y="241" as="sourcePoint" />
          </mxGeometry>
        </mxCell>
        <mxCell id="kMCeNx05lhO0hg5yUVcD-28" style="rounded=0;orthogonalLoop=1;jettySize=auto;html=1;strokeWidth=7;endArrow=none;endFill=0;strokeColor=#c2c1c2;shape=link;fontSize=35;fontFamily=Roboto;fontSource=https://fonts.googleapis.com/css?family=Roboto;exitX=0.668;exitY=0.272;exitDx=0;exitDy=0;exitPerimeter=0;labelBackgroundColor=#181B1F;entryX=-0.036;entryY=0.94;entryDx=0;entryDy=0;entryPerimeter=0;" parent="1" source="47inE0um5gzFqJknWhK_-25" target="ArYwc4VSTUIGlC5Kt4IR-23" edge="1">
          <mxGeometry relative="1" as="geometry">
            <mxPoint x="30" y="-410" as="targetPoint" />
            <mxPoint x="-670" y="300" as="sourcePoint" />
          </mxGeometry>
        </mxCell>
        <mxCell id="kMCeNx05lhO0hg5yUVcD-25" value="&lt;b style=&quot;border-color: var(--border-color); font-size: 35px;&quot;&gt;&lt;font style=&quot;border-color: var(--border-color); font-size: 35px;&quot;&gt;MVX&lt;/font&gt;&lt;/b&gt;" style="rounded=0;orthogonalLoop=1;jettySize=auto;html=1;strokeWidth=7;endArrow=none;endFill=0;strokeColor=#c2c1c2;shape=link;fontSize=35;fontFamily=Roboto;fontSource=https://fonts.googleapis.com/css?family=Roboto;labelBackgroundColor=#181B1F;exitX=0.16;exitY=0.723;exitDx=0;exitDy=0;exitPerimeter=0;entryX=1.013;entryY=0.477;entryDx=0;entryDy=0;entryPerimeter=0;" parent="1" source="kMCeNx05lhO0hg5yUVcD-20" target="kMCeNx05lhO0hg5yUVcD-26" edge="1">
          <mxGeometry x="-0.0024" y="5" relative="1" as="geometry">
            <mxPoint x="35" y="876.3984408834995" as="targetPoint" />
            <mxPoint x="385" y="786" as="sourcePoint" />
            <mxPoint as="offset" />
          </mxGeometry>
        </mxCell>
        <mxCell id="kMCeNx05lhO0hg5yUVcD-19" value="&lt;b style=&quot;border-color: var(--border-color); font-size: 35px;&quot;&gt;&lt;font style=&quot;border-color: var(--border-color); font-size: 35px;&quot;&gt;OI&lt;/font&gt;&lt;/b&gt;" style="rounded=0;orthogonalLoop=1;jettySize=auto;html=1;strokeWidth=7;endArrow=none;endFill=0;strokeColor=#c2c1c2;shape=link;fontSize=35;fontFamily=Roboto;fontSource=https://fonts.googleapis.com/css?family=Roboto;labelBackgroundColor=#181B1F;" parent="1" source="kMCeNx05lhO0hg5yUVcD-20" target="kMCeNx05lhO0hg5yUVcD-21" edge="1">
          <mxGeometry relative="1" as="geometry">
            <mxPoint x="206" y="861.5" as="targetPoint" />
          </mxGeometry>
        </mxCell>
        <mxCell id="kMCeNx05lhO0hg5yUVcD-20" value="&lt;b&gt;FW_ARJ_TIJUCA&lt;/b&gt;" style="sketch=0;points=[[0.015,0.015,0],[0.985,0.015,0],[0.985,0.985,0],[0.015,0.985,0],[0.25,0,0],[0.5,0,0],[0.75,0,0],[1,0.25,0],[1,0.5,0],[1,0.75,0],[0.75,1,0],[0.5,1,0],[0.25,1,0],[0,0.75,0],[0,0.5,0],[0,0.25,0]];verticalLabelPosition=bottom;html=1;verticalAlign=top;aspect=fixed;align=center;pointerEvents=1;shape=mxgraph.cisco19.rect;prIcon=firewall;fillColor=#FAFAFA;strokeColor=#005073;fontSize=35;fontFamily=Roboto;fontSource=https://fonts.googleapis.com/css?family=Roboto;fontColor=#E6E6E6;labelBackgroundColor=#181B1F;" parent="1" vertex="1">
          <mxGeometry x="740" y="604" width="102.4" height="80" as="geometry" />
        </mxCell>
        <mxCell id="kMCeNx05lhO0hg5yUVcD-21" value="&lt;b style=&quot;border-color: var(--border-color); font-size: 35px;&quot;&gt;vpnSSA_01&lt;/b&gt;" style="sketch=0;pointerEvents=1;shadow=0;dashed=0;html=1;strokeColor=none;fillColor=#434445;aspect=fixed;labelPosition=center;verticalLabelPosition=bottom;verticalAlign=top;align=center;outlineConnect=0;shape=mxgraph.vvd.vpn;fontSize=35;fontFamily=Roboto;fontSource=https://fonts.googleapis.com/css?family=Roboto;fontColor=#E6E6E6;labelBackgroundColor=#181B1F;" parent="1" vertex="1">
          <mxGeometry x="60" y="614" width="60" height="60" as="geometry" />
        </mxCell>
        <mxCell id="93xmVZuqs_C2BlXIlUVw-2" value="&lt;b style=&quot;border-color: var(--border-color); font-size: 35px;&quot;&gt;MVX&lt;/b&gt;" style="rounded=0;orthogonalLoop=1;jettySize=auto;html=1;strokeWidth=7;endArrow=none;endFill=0;strokeColor=#c2c1c2;shape=link;fontSize=35;fontFamily=Roboto;fontSource=https://fonts.googleapis.com/css?family=Roboto;labelBackgroundColor=#181B1F;" parent="1" source="8FgwcvRIyHQLVMrllgTb-44" target="93xmVZuqs_C2BlXIlUVw-3" edge="1">
          <mxGeometry relative="1" as="geometry">
            <mxPoint x="184.39999999999998" y="95" as="targetPoint" />
            <mxPoint x="428.4" y="2" as="sourcePoint" />
          </mxGeometry>
        </mxCell>
        <mxCell id="47inE0um5gzFqJknWhK_-16" value="&lt;b style=&quot;border-color: var(--border-color); font-size: 35px;&quot;&gt;TLM&lt;/b&gt;" style="rounded=0;orthogonalLoop=1;jettySize=auto;html=1;strokeWidth=7;endArrow=none;endFill=0;strokeColor=#c2c1c2;shape=link;fontSize=35;fontFamily=Roboto;fontSource=https://fonts.googleapis.com/css?family=Roboto;labelBackgroundColor=#181B1F;entryX=1.014;entryY=0.378;entryDx=0;entryDy=0;entryPerimeter=0;" parent="1" source="47inE0um5gzFqJknWhK_-18" target="ArYwc4VSTUIGlC5Kt4IR-23" edge="1">
          <mxGeometry relative="1" as="geometry">
            <mxPoint x="132.00000000000045" y="-622" as="targetPoint" />
          </mxGeometry>
        </mxCell>
        <mxCell id="8FgwcvRIyHQLVMrllgTb-9" value="&lt;b style=&quot;border-color: var(--border-color); font-size: 35px;&quot;&gt;&lt;font style=&quot;border-color: var(--border-color); font-size: 35px;&quot;&gt;MVX&lt;/font&gt;&lt;/b&gt;" style="rounded=0;orthogonalLoop=1;jettySize=auto;html=1;strokeWidth=7;endArrow=none;endFill=0;strokeColor=#c2c1c2;shape=link;fontSize=35;fontFamily=Roboto;fontSource=https://fonts.googleapis.com/css?family=Roboto;exitX=0.997;exitY=0.556;exitDx=0;exitDy=0;exitPerimeter=0;entryX=0.033;entryY=0.089;entryDx=0;entryDy=0;entryPerimeter=0;labelBackgroundColor=#181B1F;" parent="1" source="47inE0um5gzFqJknWhK_-31" target="8FgwcvRIyHQLVMrllgTb-10" edge="1">
          <mxGeometry relative="1" as="geometry">
            <mxPoint x="-1478" y="-230" as="targetPoint" />
            <mxPoint x="-1740" y="-321" as="sourcePoint" />
          </mxGeometry>
        </mxCell>
        <mxCell id="47inE0um5gzFqJknWhK_-11" style="rounded=0;orthogonalLoop=1;jettySize=auto;html=1;strokeWidth=7;endArrow=none;endFill=0;strokeColor=#c2c1c2;shape=link;fontSize=35;fontFamily=Roboto;fontSource=https://fonts.googleapis.com/css?family=Roboto;exitX=0.473;exitY=0.326;exitDx=0;exitDy=0;exitPerimeter=0;labelBackgroundColor=#181B1F;entryX=0;entryY=0.656;entryDx=0;entryDy=0;entryPerimeter=0;" parent="1" source="47inE0um5gzFqJknWhK_-25" target="ArYwc4VSTUIGlC5Kt4IR-23" edge="1">
          <mxGeometry relative="1" as="geometry">
            <mxPoint x="47.039999999999964" y="-495.2700000000002" as="targetPoint" />
          </mxGeometry>
        </mxCell>
        <mxCell id="47inE0um5gzFqJknWhK_-14" value="&lt;b style=&quot;border-color: var(--border-color); font-size: 35px;&quot;&gt;&lt;font style=&quot;border-color: var(--border-color); font-size: 35px;&quot;&gt;MVX&lt;/font&gt;&lt;/b&gt;" style="rounded=0;orthogonalLoop=1;jettySize=auto;html=1;strokeWidth=7;endArrow=none;endFill=0;strokeColor=#c2c1c2;shape=link;fontSize=35;fontFamily=Roboto;fontSource=https://fonts.googleapis.com/css?family=Roboto;labelBackgroundColor=#181B1F;entryX=0;entryY=0.25;entryDx=0;entryDy=0;" parent="1" source="47inE0um5gzFqJknWhK_-15" target="kMCeNx05lhO0hg5yUVcD-1" edge="1">
          <mxGeometry relative="1" as="geometry">
            <mxPoint x="-1470" y="-560" as="targetPoint" />
          </mxGeometry>
        </mxCell>
        <mxCell id="47inE0um5gzFqJknWhK_-15" value="&lt;b&gt;&lt;span style=&quot;white-space: pre;&quot;&gt;&amp;nbsp;&amp;nbsp;&amp;nbsp;&amp;nbsp;&lt;/span&gt;FW_ARJ_ENGENHO_DE_DENTRO&lt;/b&gt;" style="sketch=0;points=[[0.015,0.015,0],[0.985,0.015,0],[0.985,0.985,0],[0.015,0.985,0],[0.25,0,0],[0.5,0,0],[0.75,0,0],[1,0.25,0],[1,0.5,0],[1,0.75,0],[0.75,1,0],[0.5,1,0],[0.25,1,0],[0,0.75,0],[0,0.5,0],[0,0.25,0]];verticalLabelPosition=bottom;html=1;verticalAlign=top;aspect=fixed;align=center;pointerEvents=1;shape=mxgraph.cisco19.rect;prIcon=firewall;fillColor=#FAFAFA;strokeColor=#005073;fontSize=35;fontFamily=Roboto;fontSource=https://fonts.googleapis.com/css?family=Roboto;fontColor=#E6E6E6;labelBackgroundColor=#181B1F;" parent="1" vertex="1">
          <mxGeometry x="-2200" y="-600" width="102.4" height="80" as="geometry" />
        </mxCell>
        <mxCell id="47inE0um5gzFqJknWhK_-18" value="&lt;b style=&quot;border-color: var(--border-color); font-size: 35px;&quot;&gt;FW_ARJ_ETE_ILHA_DO_GOVERNADOR&lt;/b&gt;" style="sketch=0;points=[[0.015,0.015,0],[0.985,0.015,0],[0.985,0.985,0],[0.015,0.985,0],[0.25,0,0],[0.5,0,0],[0.75,0,0],[1,0.25,0],[1,0.5,0],[1,0.75,0],[0.75,1,0],[0.5,1,0],[0.25,1,0],[0,0.75,0],[0,0.5,0],[0,0.25,0]];verticalLabelPosition=bottom;html=1;verticalAlign=top;aspect=fixed;align=center;pointerEvents=1;shape=mxgraph.cisco19.rect;prIcon=firewall;fillColor=#FAFAFA;strokeColor=#005073;fontSize=35;fontFamily=Roboto;fontSource=https://fonts.googleapis.com/css?family=Roboto;fontColor=#E6E6E6;labelBackgroundColor=#181B1F;" parent="1" vertex="1">
          <mxGeometry x="750" y="-600" width="102.4" height="80" as="geometry" />
        </mxCell>
        <mxCell id="47inE0um5gzFqJknWhK_-19" value="&lt;b style=&quot;border-color: var(--border-color); font-size: 35px;&quot;&gt;MVX&lt;/b&gt;" style="rounded=0;orthogonalLoop=1;jettySize=auto;html=1;strokeWidth=7;endArrow=none;endFill=0;strokeColor=#c2c1c2;shape=link;fontSize=35;fontFamily=Roboto;fontSource=https://fonts.googleapis.com/css?family=Roboto;labelBackgroundColor=#181B1F;entryX=1.011;entryY=0.232;entryDx=0;entryDy=0;entryPerimeter=0;" parent="1" source="47inE0um5gzFqJknWhK_-21" target="ArYwc4VSTUIGlC5Kt4IR-25" edge="1">
          <mxGeometry relative="1" as="geometry">
            <mxPoint x="150" y="-320" as="targetPoint" />
            <Array as="points">
              <mxPoint x="260" y="-320" />
            </Array>
          </mxGeometry>
        </mxCell>
        <mxCell id="47inE0um5gzFqJknWhK_-21" value="&lt;b style=&quot;border-color: var(--border-color); font-size: 35px;&quot;&gt;FW_ARJ_PAVUNA&lt;/b&gt;" style="sketch=0;points=[[0.015,0.015,0],[0.985,0.015,0],[0.985,0.985,0],[0.015,0.985,0],[0.25,0,0],[0.5,0,0],[0.75,0,0],[1,0.25,0],[1,0.5,0],[1,0.75,0],[0.75,1,0],[0.5,1,0],[0.25,1,0],[0,0.75,0],[0,0.5,0],[0,0.25,0]];verticalLabelPosition=bottom;html=1;verticalAlign=top;aspect=fixed;align=center;pointerEvents=1;shape=mxgraph.cisco19.rect;prIcon=firewall;fillColor=#FAFAFA;strokeColor=#005073;fontSize=35;fontFamily=Roboto;fontSource=https://fonts.googleapis.com/css?family=Roboto;fontColor=#E6E6E6;labelBackgroundColor=#181B1F;" parent="1" vertex="1">
          <mxGeometry x="750" y="-360" width="102.4" height="80" as="geometry" />
        </mxCell>
        <mxCell id="47inE0um5gzFqJknWhK_-24" value="&lt;b style=&quot;border-color: var(--border-color); font-size: 35px;&quot;&gt;vpnitc_01&lt;/b&gt;" style="sketch=0;pointerEvents=1;shadow=0;dashed=0;html=1;strokeColor=none;fillColor=#434445;aspect=fixed;labelPosition=center;verticalLabelPosition=bottom;verticalAlign=top;align=center;outlineConnect=0;shape=mxgraph.vvd.vpn;fontSize=35;fontFamily=Roboto;fontSource=https://fonts.googleapis.com/css?family=Roboto;fontColor=#E6E6E6;labelBackgroundColor=#181B1F;" parent="1" vertex="1">
          <mxGeometry x="60" y="-810" width="60" height="60" as="geometry" />
        </mxCell>
        <mxCell id="47inE0um5gzFqJknWhK_-25" value="&lt;b style=&quot;font-size: 35px;&quot;&gt;&lt;font style=&quot;font-size: 35px;&quot;&gt;AGUAS DO RIO&lt;/font&gt;&lt;/b&gt;" style="sketch=0;points=[[0.015,0.015,0],[0.985,0.015,0],[0.985,0.985,0],[0.015,0.985,0],[0.25,0,0],[0.5,0,0],[0.75,0,0],[1,0.25,0],[1,0.5,0],[1,0.75,0],[0.75,1,0],[0.5,1,0],[0.25,1,0],[0,0.75,0],[0,0.5,0],[0,0.25,0]];verticalLabelPosition=bottom;html=1;verticalAlign=top;aspect=fixed;align=center;pointerEvents=1;shape=mxgraph.cisco19.rect;prIcon=firewall;fillColor=#FAFAFA;strokeColor=#005073;fontSize=35;fontFamily=Roboto;fontSource=https://fonts.googleapis.com/css?family=Roboto;fontColor=#E6E6E6;labelBackgroundColor=#181B1F;" parent="1" vertex="1">
          <mxGeometry x="-750" y="60" width="149.12" height="116.5" as="geometry" />
        </mxCell>
        <mxCell id="47inE0um5gzFqJknWhK_-31" value="&lt;b style=&quot;border-color: var(--border-color); font-size: 35px;&quot;&gt;FW_ARJ_BSO_FREI_PINTO&lt;/b&gt;" style="sketch=0;points=[[0.015,0.015,0],[0.985,0.015,0],[0.985,0.985,0],[0.015,0.985,0],[0.25,0,0],[0.5,0,0],[0.75,0,0],[1,0.25,0],[1,0.5,0],[1,0.75,0],[0.75,1,0],[0.5,1,0],[0.25,1,0],[0,0.75,0],[0,0.5,0],[0,0.25,0]];verticalLabelPosition=bottom;html=1;verticalAlign=top;aspect=fixed;align=center;pointerEvents=1;shape=mxgraph.cisco19.rect;prIcon=firewall;fillColor=#FAFAFA;strokeColor=#005073;fontSize=35;fontFamily=Roboto;fontSource=https://fonts.googleapis.com/css?family=Roboto;fontColor=#E6E6E6;labelBackgroundColor=#181B1F;" parent="1" vertex="1">
          <mxGeometry x="-2200" y="-360" width="102.4" height="80" as="geometry" />
        </mxCell>
        <mxCell id="8FgwcvRIyHQLVMrllgTb-10" value="" style="sketch=0;pointerEvents=1;shadow=0;dashed=0;html=1;strokeColor=none;fillColor=#434445;aspect=fixed;labelPosition=center;verticalLabelPosition=bottom;verticalAlign=top;align=center;outlineConnect=0;shape=mxgraph.vvd.vpn;fontSize=35;fontFamily=Roboto;fontSource=https://fonts.googleapis.com/css?family=Roboto;fontColor=#E6E6E6;labelBackgroundColor=#181B1F;" parent="1" vertex="1">
          <mxGeometry x="-1470" y="-240" width="60" height="60" as="geometry" />
        </mxCell>
        <mxCell id="8FgwcvRIyHQLVMrllgTb-13" value="" style="sketch=0;pointerEvents=1;shadow=0;dashed=0;html=1;strokeColor=none;fillColor=#434445;aspect=fixed;labelPosition=center;verticalLabelPosition=bottom;verticalAlign=top;align=center;outlineConnect=0;shape=mxgraph.vvd.vpn;fontSize=35;fontFamily=Roboto;fontSource=https://fonts.googleapis.com/css?family=Roboto;fontColor=#E6E6E6;labelBackgroundColor=#181B1F;" parent="1" vertex="1">
          <mxGeometry x="-1470" y="-350" width="60" height="60" as="geometry" />
        </mxCell>
        <mxCell id="8FgwcvRIyHQLVMrllgTb-17" value="&lt;b style=&quot;border-color: var(--border-color); font-size: 35px;&quot;&gt;&lt;font style=&quot;border-color: var(--border-color); font-size: 35px;&quot;&gt;OI&lt;/font&gt;&lt;/b&gt;" style="rounded=0;orthogonalLoop=1;jettySize=auto;html=1;strokeWidth=7;endArrow=none;endFill=0;strokeColor=#c2c1c2;shape=link;fontSize=35;fontFamily=Roboto;fontSource=https://fonts.googleapis.com/css?family=Roboto;exitX=0.956;exitY=0.444;exitDx=0;exitDy=0;exitPerimeter=0;labelBackgroundColor=#181B1F;entryX=0.037;entryY=0.601;entryDx=0;entryDy=0;entryPerimeter=0;" parent="1" source="8FgwcvRIyHQLVMrllgTb-18" target="93xmVZuqs_C2BlXIlUVw-6" edge="1">
          <mxGeometry x="-0.0021" relative="1" as="geometry">
            <mxPoint x="-1509.8434000000002" y="-82.54999999999995" as="targetPoint" />
            <mxPoint x="-1744" y="-112" as="sourcePoint" />
            <mxPoint as="offset" />
          </mxGeometry>
        </mxCell>
        <mxCell id="8FgwcvRIyHQLVMrllgTb-18" value="&lt;b style=&quot;border-color: var(--border-color); font-size: 35px;&quot;&gt;FW_ARJ_BSO_JURAMENTO&lt;/b&gt;" style="sketch=0;points=[[0.015,0.015,0],[0.985,0.015,0],[0.985,0.985,0],[0.015,0.985,0],[0.25,0,0],[0.5,0,0],[0.75,0,0],[1,0.25,0],[1,0.5,0],[1,0.75,0],[0.75,1,0],[0.5,1,0],[0.25,1,0],[0,0.75,0],[0,0.5,0],[0,0.25,0]];verticalLabelPosition=bottom;html=1;verticalAlign=top;aspect=fixed;align=center;pointerEvents=1;shape=mxgraph.cisco19.rect;prIcon=firewall;fillColor=#FAFAFA;strokeColor=#005073;fontSize=35;fontFamily=Roboto;fontSource=https://fonts.googleapis.com/css?family=Roboto;fontColor=#E6E6E6;labelBackgroundColor=#181B1F;" parent="1" vertex="1">
          <mxGeometry x="-2200" y="-120" width="102.4" height="80" as="geometry" />
        </mxCell>
        <mxCell id="8FgwcvRIyHQLVMrllgTb-23" value="&lt;span style=&quot;font-size: 35px;&quot;&gt;&lt;b style=&quot;font-size: 35px;&quot;&gt;SPW&lt;/b&gt;&lt;/span&gt;" style="rounded=0;orthogonalLoop=1;jettySize=auto;html=1;strokeWidth=7;endArrow=none;endFill=0;strokeColor=#c2c1c2;shape=link;fontSize=35;fontFamily=Roboto;fontSource=https://fonts.googleapis.com/css?family=Roboto;exitX=0.997;exitY=0.556;exitDx=0;exitDy=0;exitPerimeter=0;labelBackgroundColor=#181B1F;entryX=-0.018;entryY=0.698;entryDx=0;entryDy=0;entryPerimeter=0;" parent="1" source="8FgwcvRIyHQLVMrllgTb-25" target="ArYwc4VSTUIGlC5Kt4IR-17" edge="1">
          <mxGeometry x="0.1413" y="-9" relative="1" as="geometry">
            <mxPoint x="-1550" y="260" as="targetPoint" />
            <mxPoint x="-1740" y="153.5" as="sourcePoint" />
            <mxPoint as="offset" />
          </mxGeometry>
        </mxCell>
        <mxCell id="8FgwcvRIyHQLVMrllgTb-24" value="&lt;b style=&quot;border-color: var(--border-color); font-size: 35px;&quot;&gt;&lt;font style=&quot;border-color: var(--border-color); font-size: 35px;&quot;&gt;OI&lt;/font&gt;&lt;/b&gt;" style="rounded=0;orthogonalLoop=1;jettySize=auto;html=1;strokeWidth=7;endArrow=none;endFill=0;strokeColor=#c2c1c2;shape=link;fontSize=35;fontFamily=Roboto;fontSource=https://fonts.googleapis.com/css?family=Roboto;exitX=0.956;exitY=0.444;exitDx=0;exitDy=0;exitPerimeter=0;labelBackgroundColor=#181B1F;entryX=-0.025;entryY=0.32;entryDx=0;entryDy=0;entryPerimeter=0;" parent="1" source="8FgwcvRIyHQLVMrllgTb-25" target="ArYwc4VSTUIGlC5Kt4IR-17" edge="1">
          <mxGeometry relative="1" as="geometry">
            <mxPoint x="-1560" y="140" as="targetPoint" />
            <mxPoint x="-1734" y="144.5" as="sourcePoint" />
          </mxGeometry>
        </mxCell>
        <mxCell id="8FgwcvRIyHQLVMrllgTb-25" value="&lt;b style=&quot;border-color: var(--border-color); font-size: 35px;&quot;&gt;FW_ARJ_BSO_LOJA_ILHA_DO_GOVERNADOR&lt;/b&gt;" style="sketch=0;points=[[0.015,0.015,0],[0.985,0.015,0],[0.985,0.985,0],[0.015,0.985,0],[0.25,0,0],[0.5,0,0],[0.75,0,0],[1,0.25,0],[1,0.5,0],[1,0.75,0],[0.75,1,0],[0.5,1,0],[0.25,1,0],[0,0.75,0],[0,0.5,0],[0,0.25,0]];verticalLabelPosition=bottom;html=1;verticalAlign=top;aspect=fixed;align=center;pointerEvents=1;shape=mxgraph.cisco19.rect;prIcon=firewall;fillColor=#FAFAFA;strokeColor=#005073;fontSize=35;fontFamily=Roboto;fontSource=https://fonts.googleapis.com/css?family=Roboto;fontColor=#E6E6E6;labelBackgroundColor=#181B1F;" parent="1" vertex="1">
          <mxGeometry x="-2200" y="120" width="102.4" height="80" as="geometry" />
        </mxCell>
        <mxCell id="8FgwcvRIyHQLVMrllgTb-39" value="&lt;b style=&quot;border-color: var(--border-color); font-size: 35px;&quot;&gt;vpnITC_03&lt;/b&gt;" style="sketch=0;pointerEvents=1;shadow=0;dashed=0;html=1;strokeColor=none;fillColor=#434445;aspect=fixed;labelPosition=center;verticalLabelPosition=bottom;verticalAlign=top;align=center;outlineConnect=0;shape=mxgraph.vvd.vpn;fontSize=35;fontFamily=Roboto;fontSource=https://fonts.googleapis.com/css?family=Roboto;fontColor=#E6E6E6;labelBackgroundColor=#181B1F;" parent="1" vertex="1">
          <mxGeometry x="60" y="-610" width="60" height="60" as="geometry" />
        </mxCell>
        <mxCell id="8FgwcvRIyHQLVMrllgTb-44" value="&lt;b&gt;&lt;span style=&quot;white-space: pre;&quot;&gt;&amp;nbsp;&amp;nbsp;&amp;nbsp;&amp;nbsp;&lt;/span&gt;FW_ARJ_ETE_PENHA&lt;/b&gt;" style="sketch=0;points=[[0.015,0.015,0],[0.985,0.015,0],[0.985,0.985,0],[0.015,0.985,0],[0.25,0,0],[0.5,0,0],[0.75,0,0],[1,0.25,0],[1,0.5,0],[1,0.75,0],[0.75,1,0],[0.5,1,0],[0.25,1,0],[0,0.75,0],[0,0.5,0],[0,0.25,0]];verticalLabelPosition=bottom;html=1;verticalAlign=top;aspect=fixed;align=center;pointerEvents=1;shape=mxgraph.cisco19.rect;prIcon=firewall;fillColor=#FAFAFA;strokeColor=#005073;fontSize=35;fontFamily=Roboto;fontSource=https://fonts.googleapis.com/css?family=Roboto;fontColor=#E6E6E6;labelBackgroundColor=#181B1F;" parent="1" vertex="1">
          <mxGeometry x="745" y="-120" width="102.4" height="80" as="geometry" />
        </mxCell>
        <mxCell id="8FgwcvRIyHQLVMrllgTb-49" value="&lt;b style=&quot;border-color: var(--border-color); font-size: 35px;&quot;&gt;&lt;font style=&quot;border-color: var(--border-color); font-size: 35px;&quot;&gt;OI&lt;/font&gt;&lt;/b&gt;" style="rounded=0;orthogonalLoop=1;jettySize=auto;html=1;strokeWidth=7;endArrow=none;endFill=0;strokeColor=#c2c1c2;shape=link;fontSize=35;fontFamily=Roboto;fontSource=https://fonts.googleapis.com/css?family=Roboto;labelBackgroundColor=#181B1F;entryX=1.021;entryY=0.5;entryDx=0;entryDy=0;entryPerimeter=0;" parent="1" source="8FgwcvRIyHQLVMrllgTb-50" target="8FgwcvRIyHQLVMrllgTb-52" edge="1">
          <mxGeometry relative="1" as="geometry">
            <mxPoint x="130" y="137.5" as="targetPoint" />
          </mxGeometry>
        </mxCell>
        <mxCell id="8FgwcvRIyHQLVMrllgTb-50" value="&lt;b&gt;FW_ARJ_MARE&lt;/b&gt;" style="sketch=0;points=[[0.015,0.015,0],[0.985,0.015,0],[0.985,0.985,0],[0.015,0.985,0],[0.25,0,0],[0.5,0,0],[0.75,0,0],[1,0.25,0],[1,0.5,0],[1,0.75,0],[0.75,1,0],[0.5,1,0],[0.25,1,0],[0,0.75,0],[0,0.5,0],[0,0.25,0]];verticalLabelPosition=bottom;html=1;verticalAlign=top;aspect=fixed;align=center;pointerEvents=1;shape=mxgraph.cisco19.rect;prIcon=firewall;fillColor=#FAFAFA;strokeColor=#005073;fontSize=35;fontFamily=Roboto;fontSource=https://fonts.googleapis.com/css?family=Roboto;fontColor=#E6E6E6;labelBackgroundColor=#181B1F;" parent="1" vertex="1">
          <mxGeometry x="745" y="120" width="102.4" height="80" as="geometry" />
        </mxCell>
        <mxCell id="8FgwcvRIyHQLVMrllgTb-52" value="&lt;b style=&quot;border-color: var(--border-color); font-size: 35px;&quot;&gt;vpnRBT_02&lt;/b&gt;" style="sketch=0;pointerEvents=1;shadow=0;dashed=0;html=1;strokeColor=none;fillColor=#434445;aspect=fixed;labelPosition=center;verticalLabelPosition=bottom;verticalAlign=top;align=center;outlineConnect=0;shape=mxgraph.vvd.vpn;fontSize=35;fontFamily=Roboto;fontSource=https://fonts.googleapis.com/css?family=Roboto;fontColor=#E6E6E6;labelBackgroundColor=#181B1F;" parent="1" vertex="1">
          <mxGeometry x="60" y="130" width="60" height="60" as="geometry" />
        </mxCell>
        <mxCell id="93xmVZuqs_C2BlXIlUVw-3" value="" style="sketch=0;pointerEvents=1;shadow=0;dashed=0;html=1;strokeColor=none;fillColor=#434445;aspect=fixed;labelPosition=center;verticalLabelPosition=bottom;verticalAlign=top;align=center;outlineConnect=0;shape=mxgraph.vvd.vpn;fontSize=35;fontFamily=Roboto;fontSource=https://fonts.googleapis.com/css?family=Roboto;fontColor=#E6E6E6;labelBackgroundColor=#181B1F;" parent="1" vertex="1">
          <mxGeometry x="60" width="60" height="60" as="geometry" />
        </mxCell>
        <mxCell id="93xmVZuqs_C2BlXIlUVw-12" value="&lt;b style=&quot;border-color: var(--border-color); font-size: 35px;&quot;&gt;OI&lt;/b&gt;" style="rounded=0;orthogonalLoop=1;jettySize=auto;html=1;strokeWidth=7;endArrow=none;endFill=0;strokeColor=#c2c1c2;shape=link;fontSize=35;fontFamily=Roboto;fontSource=https://fonts.googleapis.com/css?family=Roboto;labelBackgroundColor=#181B1F;entryX=0.949;entryY=0.531;entryDx=0;entryDy=0;entryPerimeter=0;exitX=0;exitY=0.5;exitDx=0;exitDy=0;exitPerimeter=0;" parent="1" source="93xmVZuqs_C2BlXIlUVw-14" target="93xmVZuqs_C2BlXIlUVw-29" edge="1">
          <mxGeometry relative="1" as="geometry">
            <mxPoint x="60.42000000000007" y="402.37999999999965" as="targetPoint" />
            <mxPoint x="410" y="402.0485453365932" as="sourcePoint" />
          </mxGeometry>
        </mxCell>
        <mxCell id="93xmVZuqs_C2BlXIlUVw-13" value="&lt;b style=&quot;border-color: var(--border-color); font-size: 35px;&quot;&gt;&lt;font style=&quot;border-color: var(--border-color); font-size: 35px;&quot;&gt;SPW&lt;/font&gt;&lt;/b&gt;" style="rounded=0;orthogonalLoop=1;jettySize=auto;html=1;strokeWidth=7;endArrow=none;endFill=0;strokeColor=#c2c1c2;shape=link;fontSize=35;fontFamily=Roboto;fontSource=https://fonts.googleapis.com/css?family=Roboto;labelBackgroundColor=#181B1F;entryX=0.98;entryY=0.48;entryDx=0;entryDy=0;entryPerimeter=0;" parent="1" source="93xmVZuqs_C2BlXIlUVw-14" target="93xmVZuqs_C2BlXIlUVw-30" edge="1">
          <mxGeometry x="0.0067" y="1" relative="1" as="geometry">
            <mxPoint x="60.000000000000455" y="502.95547309833046" as="targetPoint" />
            <mxPoint as="offset" />
          </mxGeometry>
        </mxCell>
        <mxCell id="93xmVZuqs_C2BlXIlUVw-14" value="&lt;b&gt;FW_ARJ_LOJA_PENHA_2&lt;/b&gt;" style="sketch=0;points=[[0.015,0.015,0],[0.985,0.015,0],[0.985,0.985,0],[0.015,0.985,0],[0.25,0,0],[0.5,0,0],[0.75,0,0],[1,0.25,0],[1,0.5,0],[1,0.75,0],[0.75,1,0],[0.5,1,0],[0.25,1,0],[0,0.75,0],[0,0.5,0],[0,0.25,0]];verticalLabelPosition=bottom;html=1;verticalAlign=top;aspect=fixed;align=center;pointerEvents=1;shape=mxgraph.cisco19.rect;prIcon=firewall;fillColor=#FAFAFA;strokeColor=#005073;fontSize=35;fontFamily=Roboto;fontSource=https://fonts.googleapis.com/css?family=Roboto;fontColor=#E6E6E6;labelBackgroundColor=#181B1F;" parent="1" vertex="1">
          <mxGeometry x="745" y="360" width="102.4" height="80" as="geometry" />
        </mxCell>
        <mxCell id="93xmVZuqs_C2BlXIlUVw-18" value="&lt;b style=&quot;border-color: var(--border-color); font-size: 35px;&quot;&gt;&lt;font style=&quot;border-color: var(--border-color); font-size: 35px;&quot;&gt;OI&lt;/font&gt;&lt;/b&gt;" style="rounded=0;orthogonalLoop=1;jettySize=auto;html=1;strokeWidth=7;endArrow=none;endFill=0;strokeColor=#c2c1c2;shape=link;fontSize=35;fontFamily=Roboto;fontSource=https://fonts.googleapis.com/css?family=Roboto;labelBackgroundColor=#181B1F;entryX=-0.033;entryY=0.402;entryDx=0;entryDy=0;entryPerimeter=0;" parent="1" source="93xmVZuqs_C2BlXIlUVw-19" target="93xmVZuqs_C2BlXIlUVw-26" edge="1">
          <mxGeometry relative="1" as="geometry">
            <mxPoint x="-1480" y="386.4999999999998" as="targetPoint" />
          </mxGeometry>
        </mxCell>
        <mxCell id="93xmVZuqs_C2BlXIlUVw-19" value="&lt;b&gt;FW_ARJ_ELEVATORIO_PRAIA_DA_BICA&lt;/b&gt;" style="sketch=0;points=[[0.015,0.015,0],[0.985,0.015,0],[0.985,0.985,0],[0.015,0.985,0],[0.25,0,0],[0.5,0,0],[0.75,0,0],[1,0.25,0],[1,0.5,0],[1,0.75,0],[0.75,1,0],[0.5,1,0],[0.25,1,0],[0,0.75,0],[0,0.5,0],[0,0.25,0]];verticalLabelPosition=bottom;html=1;verticalAlign=top;aspect=fixed;align=center;pointerEvents=1;shape=mxgraph.cisco19.rect;prIcon=firewall;fillColor=#FAFAFA;strokeColor=#005073;fontSize=35;fontFamily=Roboto;fontSource=https://fonts.googleapis.com/css?family=Roboto;fontColor=#E6E6E6;labelBackgroundColor=#181B1F;" parent="1" vertex="1">
          <mxGeometry x="-2200" y="400" width="102.4" height="80" as="geometry" />
        </mxCell>
        <mxCell id="93xmVZuqs_C2BlXIlUVw-6" value="" style="sketch=0;pointerEvents=1;shadow=0;dashed=0;html=1;strokeColor=none;fillColor=#434445;aspect=fixed;labelPosition=center;verticalLabelPosition=bottom;verticalAlign=top;align=center;outlineConnect=0;shape=mxgraph.vvd.vpn;fontSize=35;fontFamily=Roboto;fontSource=https://fonts.googleapis.com/css?family=Roboto;fontColor=#E6E6E6;labelBackgroundColor=#181B1F;" parent="1" vertex="1">
          <mxGeometry x="-1470" y="-120" width="60" height="60" as="geometry" />
        </mxCell>
        <mxCell id="93xmVZuqs_C2BlXIlUVw-7" value="" style="sketch=0;pointerEvents=1;shadow=0;dashed=0;html=1;strokeColor=none;fillColor=#434445;aspect=fixed;labelPosition=center;verticalLabelPosition=bottom;verticalAlign=top;align=center;outlineConnect=0;shape=mxgraph.vvd.vpn;fontSize=35;fontFamily=Roboto;fontSource=https://fonts.googleapis.com/css?family=Roboto;fontColor=#E6E6E6;labelBackgroundColor=#181B1F;" parent="1" vertex="1">
          <mxGeometry x="-1470" y="-40" width="60" height="60" as="geometry" />
        </mxCell>
        <mxCell id="93xmVZuqs_C2BlXIlUVw-10" value="" style="sketch=0;pointerEvents=1;shadow=0;dashed=0;html=1;strokeColor=none;fillColor=#434445;aspect=fixed;labelPosition=center;verticalLabelPosition=bottom;verticalAlign=top;align=center;outlineConnect=0;shape=mxgraph.vvd.vpn;fontSize=35;fontFamily=Roboto;fontSource=https://fonts.googleapis.com/css?family=Roboto;fontColor=#E6E6E6;labelBackgroundColor=#181B1F;" parent="1" vertex="1">
          <mxGeometry x="-1472.55" y="540" width="60" height="60" as="geometry" />
        </mxCell>
        <mxCell id="93xmVZuqs_C2BlXIlUVw-26" value="" style="sketch=0;pointerEvents=1;shadow=0;dashed=0;html=1;strokeColor=none;fillColor=#434445;aspect=fixed;labelPosition=center;verticalLabelPosition=bottom;verticalAlign=top;align=center;outlineConnect=0;shape=mxgraph.vvd.vpn;fontSize=35;fontFamily=Roboto;fontSource=https://fonts.googleapis.com/css?family=Roboto;fontColor=#E6E6E6;labelBackgroundColor=#181B1F;" parent="1" vertex="1">
          <mxGeometry x="-1470" y="420" width="60" height="60" as="geometry" />
        </mxCell>
        <mxCell id="93xmVZuqs_C2BlXIlUVw-29" value="&lt;b style=&quot;border-color: var(--border-color); font-size: 35px;&quot;&gt;vpnSFI_01&lt;/b&gt;" style="sketch=0;pointerEvents=1;shadow=0;dashed=0;html=1;strokeColor=none;fillColor=#434445;aspect=fixed;labelPosition=center;verticalLabelPosition=bottom;verticalAlign=top;align=center;outlineConnect=0;shape=mxgraph.vvd.vpn;fontSize=35;fontFamily=Roboto;fontSource=https://fonts.googleapis.com/css?family=Roboto;fontColor=#E6E6E6;labelBackgroundColor=#181B1F;" parent="1" vertex="1">
          <mxGeometry x="60" y="370" width="60" height="60" as="geometry" />
        </mxCell>
        <mxCell id="93xmVZuqs_C2BlXIlUVw-30" value="&lt;b style=&quot;border-color: var(--border-color); font-size: 35px;&quot;&gt;vpnSFI_02&lt;/b&gt;" style="sketch=0;pointerEvents=1;shadow=0;dashed=0;html=1;strokeColor=none;fillColor=#434445;aspect=fixed;labelPosition=center;verticalLabelPosition=bottom;verticalAlign=top;align=center;outlineConnect=0;shape=mxgraph.vvd.vpn;fontSize=35;fontFamily=Roboto;fontSource=https://fonts.googleapis.com/css?family=Roboto;fontColor=#E6E6E6;labelBackgroundColor=#181B1F;" parent="1" vertex="1">
          <mxGeometry x="60" y="480" width="60" height="60" as="geometry" />
        </mxCell>
        <mxCell id="kMCeNx05lhO0hg5yUVcD-2" value="&lt;b style=&quot;border-color: var(--border-color); font-size: 35px;&quot;&gt;&lt;font style=&quot;border-color: var(--border-color); font-size: 35px;&quot;&gt;SPW&lt;/font&gt;&lt;/b&gt;" style="rounded=0;orthogonalLoop=1;jettySize=auto;html=1;strokeWidth=7;endArrow=none;endFill=0;strokeColor=#c2c1c2;shape=link;fontSize=35;fontFamily=Roboto;fontSource=https://fonts.googleapis.com/css?family=Roboto;exitX=0.997;exitY=0.556;exitDx=0;exitDy=0;exitPerimeter=0;entryX=0.033;entryY=0.089;entryDx=0;entryDy=0;entryPerimeter=0;labelBackgroundColor=#181B1F;" parent="1" source="kMCeNx05lhO0hg5yUVcD-5" target="kMCeNx05lhO0hg5yUVcD-6" edge="1">
          <mxGeometry relative="1" as="geometry">
            <mxPoint x="-1480.2" y="660" as="targetPoint" />
            <mxPoint x="-1742.1999999999998" y="569" as="sourcePoint" />
          </mxGeometry>
        </mxCell>
        <mxCell id="kMCeNx05lhO0hg5yUVcD-4" value="&lt;b style=&quot;border-color: var(--border-color); font-size: 35px;&quot;&gt;&lt;font style=&quot;border-color: var(--border-color); font-size: 35px;&quot;&gt;MVX&lt;/font&gt;&lt;/b&gt;" style="rounded=0;orthogonalLoop=1;jettySize=auto;html=1;strokeWidth=7;endArrow=none;endFill=0;strokeColor=#c2c1c2;shape=link;fontSize=35;fontFamily=Roboto;fontSource=https://fonts.googleapis.com/css?family=Roboto;entryX=0;entryY=0.333;entryDx=0;entryDy=0;entryPerimeter=0;exitX=1.011;exitY=0.368;exitDx=0;exitDy=0;exitPerimeter=0;labelBackgroundColor=#181B1F;" parent="1" source="kMCeNx05lhO0hg5yUVcD-5" target="kMCeNx05lhO0hg5yUVcD-7" edge="1">
          <mxGeometry relative="1" as="geometry">
            <mxPoint x="-1482.2" y="566" as="targetPoint" />
            <mxPoint x="-1762.1999999999998" y="560" as="sourcePoint" />
          </mxGeometry>
        </mxCell>
        <mxCell id="kMCeNx05lhO0hg5yUVcD-5" value="&lt;b style=&quot;border-color: var(--border-color); font-size: 35px;&quot;&gt;FW_ARJ_ETE_ALEGRIA&lt;/b&gt;" style="sketch=0;points=[[0.015,0.015,0],[0.985,0.015,0],[0.985,0.985,0],[0.015,0.985,0],[0.25,0,0],[0.5,0,0],[0.75,0,0],[1,0.25,0],[1,0.5,0],[1,0.75,0],[0.75,1,0],[0.5,1,0],[0.25,1,0],[0,0.75,0],[0,0.5,0],[0,0.25,0]];verticalLabelPosition=bottom;html=1;verticalAlign=top;aspect=fixed;align=center;pointerEvents=1;shape=mxgraph.cisco19.rect;prIcon=firewall;fillColor=#FAFAFA;strokeColor=#005073;fontSize=35;fontFamily=Roboto;fontSource=https://fonts.googleapis.com/css?family=Roboto;fontColor=#E6E6E6;labelBackgroundColor=#181B1F;" parent="1" vertex="1">
          <mxGeometry x="-2200" y="650" width="102.4" height="80" as="geometry" />
        </mxCell>
        <mxCell id="kMCeNx05lhO0hg5yUVcD-6" value="&lt;b style=&quot;border-color: var(--border-color); font-size: 35px;&quot;&gt;vpnCor_02&lt;/b&gt;" style="sketch=0;pointerEvents=1;shadow=0;dashed=0;html=1;strokeColor=none;fillColor=#434445;aspect=fixed;labelPosition=center;verticalLabelPosition=bottom;verticalAlign=top;align=center;outlineConnect=0;shape=mxgraph.vvd.vpn;fontSize=35;fontFamily=Roboto;fontSource=https://fonts.googleapis.com/css?family=Roboto;fontColor=#E6E6E6;labelBackgroundColor=#181B1F;" parent="1" vertex="1">
          <mxGeometry x="-1470" y="770" width="60" height="60" as="geometry" />
        </mxCell>
        <mxCell id="kMCeNx05lhO0hg5yUVcD-7" value="&lt;b style=&quot;border-color: var(--border-color); font-size: 35px;&quot;&gt;vpnCor_01&lt;/b&gt;" style="sketch=0;pointerEvents=1;shadow=0;dashed=0;html=1;strokeColor=none;fillColor=#434445;aspect=fixed;labelPosition=center;verticalLabelPosition=bottom;verticalAlign=top;align=center;outlineConnect=0;shape=mxgraph.vvd.vpn;fontSize=35;fontFamily=Roboto;fontSource=https://fonts.googleapis.com/css?family=Roboto;fontColor=#E6E6E6;labelBackgroundColor=#181B1F;" parent="1" vertex="1">
          <mxGeometry x="-1470" y="660" width="60" height="60" as="geometry" />
        </mxCell>
        <mxCell id="kMCeNx05lhO0hg5yUVcD-10" value="&lt;b style=&quot;border-color: var(--border-color); font-size: 35px;&quot;&gt;FW_ARJ_CAMPINHO&lt;/b&gt;" style="sketch=0;points=[[0.015,0.015,0],[0.985,0.015,0],[0.985,0.985,0],[0.015,0.985,0],[0.25,0,0],[0.5,0,0],[0.75,0,0],[1,0.25,0],[1,0.5,0],[1,0.75,0],[0.75,1,0],[0.5,1,0],[0.25,1,0],[0,0.75,0],[0,0.5,0],[0,0.25,0]];verticalLabelPosition=bottom;html=1;verticalAlign=top;aspect=fixed;align=center;pointerEvents=1;shape=mxgraph.cisco19.rect;prIcon=firewall;fillColor=#FAFAFA;strokeColor=#005073;fontSize=35;fontFamily=Roboto;fontSource=https://fonts.googleapis.com/css?family=Roboto;fontColor=#E6E6E6;labelBackgroundColor=#181B1F;" parent="1" vertex="1">
          <mxGeometry x="-726.6400000000001" y="870" width="102.4" height="80" as="geometry" />
        </mxCell>
        <mxCell id="kMCeNx05lhO0hg5yUVcD-13" value="&lt;b style=&quot;border-color: var(--border-color); font-size: 35px;&quot;&gt;&lt;font style=&quot;border-color: var(--border-color); font-size: 35px;&quot;&gt;OI&lt;/font&gt;&lt;/b&gt;" style="rounded=0;orthogonalLoop=1;jettySize=auto;html=1;strokeWidth=7;endArrow=none;endFill=0;strokeColor=#c2c1c2;shape=link;fontSize=35;fontFamily=Roboto;fontSource=https://fonts.googleapis.com/css?family=Roboto;exitX=0.028;exitY=0.623;exitDx=0;exitDy=0;exitPerimeter=0;labelBackgroundColor=#181B1F;entryX=0.998;entryY=0.62;entryDx=0;entryDy=0;entryPerimeter=0;" parent="1" source="47inE0um5gzFqJknWhK_-21" target="ArYwc4VSTUIGlC5Kt4IR-25" edge="1">
          <mxGeometry relative="1" as="geometry">
            <mxPoint x="190" y="-200" as="targetPoint" />
            <mxPoint x="-310" y="-211" as="sourcePoint" />
          </mxGeometry>
        </mxCell>
        <mxCell id="kMCeNx05lhO0hg5yUVcD-26" value="&lt;b style=&quot;border-color: var(--border-color); font-size: 35px;&quot;&gt;vpnSSA_02&lt;/b&gt;" style="sketch=0;pointerEvents=1;shadow=0;dashed=0;html=1;strokeColor=none;fillColor=#434445;aspect=fixed;labelPosition=center;verticalLabelPosition=bottom;verticalAlign=top;align=center;outlineConnect=0;shape=mxgraph.vvd.vpn;fontSize=35;fontFamily=Roboto;fontSource=https://fonts.googleapis.com/css?family=Roboto;fontColor=#E6E6E6;labelBackgroundColor=#181B1F;" parent="1" vertex="1">
          <mxGeometry x="60" y="720" width="60" height="60" as="geometry" />
        </mxCell>
        <mxCell id="kMCeNx05lhO0hg5yUVcD-1" value="" style="rounded=1;whiteSpace=wrap;html=1;fillColor=none;strokeWidth=3;strokeColor=#E6E6E6;labelPosition=center;verticalLabelPosition=top;align=center;verticalAlign=bottom;labelBackgroundColor=#181B1F;fontSize=35;" parent="1" vertex="1">
          <mxGeometry x="-1500" y="-700" width="120" height="290" as="geometry" />
        </mxCell>
        <mxCell id="kMCeNx05lhO0hg5yUVcD-8" value="&lt;b style=&quot;border-color: var(--border-color); font-size: 35px;&quot;&gt;vpnAPB_01&lt;/b&gt;" style="sketch=0;pointerEvents=1;shadow=0;dashed=0;html=1;strokeColor=none;fillColor=#434445;aspect=fixed;labelPosition=center;verticalLabelPosition=bottom;verticalAlign=top;align=center;outlineConnect=0;shape=mxgraph.vvd.vpn;fontSize=35;fontFamily=Roboto;fontSource=https://fonts.googleapis.com/css?family=Roboto;fontColor=#E6E6E6;labelBackgroundColor=#181B1F;" parent="1" vertex="1">
          <mxGeometry x="-1470" y="-690" width="60" height="60" as="geometry" />
        </mxCell>
        <mxCell id="kMCeNx05lhO0hg5yUVcD-11" value="&lt;b style=&quot;border-color: var(--border-color); font-size: 35px;&quot;&gt;vpnAPB_02&lt;/b&gt;" style="sketch=0;pointerEvents=1;shadow=0;dashed=0;html=1;strokeColor=none;fillColor=#434445;aspect=fixed;labelPosition=center;verticalLabelPosition=bottom;verticalAlign=top;align=center;outlineConnect=0;shape=mxgraph.vvd.vpn;fontSize=35;fontFamily=Roboto;fontSource=https://fonts.googleapis.com/css?family=Roboto;fontColor=#E6E6E6;labelBackgroundColor=#181B1F;" parent="1" vertex="1">
          <mxGeometry x="-1470" y="-600" width="60" height="60" as="geometry" />
        </mxCell>
        <mxCell id="kMCeNx05lhO0hg5yUVcD-15" value="&lt;b style=&quot;border-color: var(--border-color); font-size: 35px;&quot;&gt;vpnAPB_03&lt;/b&gt;" style="sketch=0;pointerEvents=1;shadow=0;dashed=0;html=1;strokeColor=none;fillColor=#434445;aspect=fixed;labelPosition=center;verticalLabelPosition=bottom;verticalAlign=top;align=center;outlineConnect=0;shape=mxgraph.vvd.vpn;fontSize=35;fontFamily=Roboto;fontSource=https://fonts.googleapis.com/css?family=Roboto;fontColor=#E6E6E6;labelBackgroundColor=#181B1F;" parent="1" vertex="1">
          <mxGeometry x="-1470" y="-510" width="60" height="60" as="geometry" />
        </mxCell>
        <mxCell id="kMCeNx05lhO0hg5yUVcD-58" value="&lt;b style=&quot;border-color: var(--border-color); font-size: 35px;&quot;&gt;vpnCTG_04&lt;/b&gt;" style="sketch=0;pointerEvents=1;shadow=0;dashed=0;html=1;strokeColor=none;fillColor=#434445;aspect=fixed;labelPosition=center;verticalLabelPosition=bottom;verticalAlign=top;align=center;outlineConnect=0;shape=mxgraph.vvd.vpn;fontSize=35;fontFamily=Roboto;fontSource=https://fonts.googleapis.com/css?family=Roboto;fontColor=#E6E6E6;labelBackgroundColor=#181B1F;" parent="1" vertex="1">
          <mxGeometry x="-1472.55" y="320" width="60" height="60" as="geometry" />
        </mxCell>
        <mxCell id="kMCeNx05lhO0hg5yUVcD-59" value="&lt;b style=&quot;border-color: var(--border-color); font-size: 35px;&quot;&gt;vpnCTG_01&lt;/b&gt;" style="sketch=0;pointerEvents=1;shadow=0;dashed=0;html=1;strokeColor=none;fillColor=#434445;aspect=fixed;labelPosition=center;verticalLabelPosition=bottom;verticalAlign=top;align=center;outlineConnect=0;shape=mxgraph.vvd.vpn;fontSize=35;fontFamily=Roboto;fontSource=https://fonts.googleapis.com/css?family=Roboto;fontColor=#E6E6E6;labelBackgroundColor=#181B1F;" parent="1" vertex="1">
          <mxGeometry x="-1472.5499999999997" y="46.5" width="60" height="60" as="geometry" />
        </mxCell>
        <mxCell id="kMCeNx05lhO0hg5yUVcD-60" value="&lt;b style=&quot;border-color: var(--border-color); font-size: 35px;&quot;&gt;vpnCTG_03&lt;/b&gt;" style="sketch=0;pointerEvents=1;shadow=0;dashed=0;html=1;strokeColor=none;fillColor=#434445;aspect=fixed;labelPosition=center;verticalLabelPosition=bottom;verticalAlign=top;align=center;outlineConnect=0;shape=mxgraph.vvd.vpn;fontSize=35;fontFamily=Roboto;fontSource=https://fonts.googleapis.com/css?family=Roboto;fontColor=#E6E6E6;labelBackgroundColor=#181B1F;" parent="1" vertex="1">
          <mxGeometry x="-1469.9999999999998" y="230" width="60" height="60" as="geometry" />
        </mxCell>
        <mxCell id="kMCeNx05lhO0hg5yUVcD-61" value="&lt;b style=&quot;border-color: var(--border-color); font-size: 35px;&quot;&gt;vpnCTG_02&lt;/b&gt;" style="sketch=0;pointerEvents=1;shadow=0;dashed=0;html=1;strokeColor=none;fillColor=#434445;aspect=fixed;labelPosition=center;verticalLabelPosition=bottom;verticalAlign=top;align=center;outlineConnect=0;shape=mxgraph.vvd.vpn;fontSize=35;fontFamily=Roboto;fontSource=https://fonts.googleapis.com/css?family=Roboto;fontColor=#E6E6E6;labelBackgroundColor=#181B1F;" parent="1" vertex="1">
          <mxGeometry x="-1470" y="140" width="60" height="60" as="geometry" />
        </mxCell>
        <mxCell id="kMCeNx05lhO0hg5yUVcD-76" value="&lt;b style=&quot;border-color: var(--border-color); font-size: 35px;&quot;&gt;vpnITC_04&lt;/b&gt;" style="sketch=0;pointerEvents=1;shadow=0;dashed=0;html=1;strokeColor=none;fillColor=#434445;aspect=fixed;labelPosition=center;verticalLabelPosition=bottom;verticalAlign=top;align=center;outlineConnect=0;shape=mxgraph.vvd.vpn;fontSize=35;fontFamily=Roboto;fontSource=https://fonts.googleapis.com/css?family=Roboto;fontColor=#E6E6E6;labelBackgroundColor=#181B1F;" parent="1" vertex="1">
          <mxGeometry x="60" y="-520" width="60" height="60" as="geometry" />
        </mxCell>
        <mxCell id="kMCeNx05lhO0hg5yUVcD-77" value="&lt;b style=&quot;border-color: var(--border-color); font-size: 35px;&quot;&gt;vpnitc_02&lt;/b&gt;" style="sketch=0;pointerEvents=1;shadow=0;dashed=0;html=1;strokeColor=none;fillColor=#434445;aspect=fixed;labelPosition=center;verticalLabelPosition=bottom;verticalAlign=top;align=center;outlineConnect=0;shape=mxgraph.vvd.vpn;fontSize=35;fontFamily=Roboto;fontSource=https://fonts.googleapis.com/css?family=Roboto;fontColor=#E6E6E6;labelBackgroundColor=#181B1F;" parent="1" vertex="1">
          <mxGeometry x="60" y="-710" width="60" height="60" as="geometry" />
        </mxCell>
        <mxCell id="kMCeNx05lhO0hg5yUVcD-86" value="&lt;b style=&quot;border-color: var(--border-color); font-size: 35px;&quot;&gt;vpnMRC_01&lt;/b&gt;" style="sketch=0;pointerEvents=1;shadow=0;dashed=0;html=1;strokeColor=none;fillColor=#434445;aspect=fixed;labelPosition=center;verticalLabelPosition=bottom;verticalAlign=top;align=center;outlineConnect=0;shape=mxgraph.vvd.vpn;fontSize=35;fontFamily=Roboto;fontSource=https://fonts.googleapis.com/css?family=Roboto;fontColor=#E6E6E6;labelBackgroundColor=#181B1F;" parent="1" vertex="1">
          <mxGeometry x="60" y="-400" width="60" height="60" as="geometry" />
        </mxCell>
        <mxCell id="kMCeNx05lhO0hg5yUVcD-87" value="&lt;b style=&quot;border-color: var(--border-color); font-size: 35px;&quot;&gt;vpnMRC_03&lt;/b&gt;" style="sketch=0;pointerEvents=1;shadow=0;dashed=0;html=1;strokeColor=none;fillColor=#434445;aspect=fixed;labelPosition=center;verticalLabelPosition=bottom;verticalAlign=top;align=center;outlineConnect=0;shape=mxgraph.vvd.vpn;fontSize=35;fontFamily=Roboto;fontSource=https://fonts.googleapis.com/css?family=Roboto;fontColor=#E6E6E6;labelBackgroundColor=#181B1F;" parent="1" vertex="1">
          <mxGeometry x="60" y="-210" width="60" height="60" as="geometry" />
        </mxCell>
        <mxCell id="kMCeNx05lhO0hg5yUVcD-88" value="&lt;b style=&quot;border-color: var(--border-color); font-size: 35px;&quot;&gt;vpnMRC_04&lt;/b&gt;" style="sketch=0;pointerEvents=1;shadow=0;dashed=0;html=1;strokeColor=none;fillColor=#434445;aspect=fixed;labelPosition=center;verticalLabelPosition=bottom;verticalAlign=top;align=center;outlineConnect=0;shape=mxgraph.vvd.vpn;fontSize=35;fontFamily=Roboto;fontSource=https://fonts.googleapis.com/css?family=Roboto;fontColor=#E6E6E6;labelBackgroundColor=#181B1F;" parent="1" vertex="1">
          <mxGeometry x="60" y="-120" width="60" height="60" as="geometry" />
        </mxCell>
        <mxCell id="kMCeNx05lhO0hg5yUVcD-89" value="&lt;b style=&quot;border-color: var(--border-color); font-size: 35px;&quot;&gt;vpnMRC_02&lt;/b&gt;" style="sketch=0;pointerEvents=1;shadow=0;dashed=0;html=1;strokeColor=none;fillColor=#434445;aspect=fixed;labelPosition=center;verticalLabelPosition=bottom;verticalAlign=top;align=center;outlineConnect=0;shape=mxgraph.vvd.vpn;fontSize=35;fontFamily=Roboto;fontSource=https://fonts.googleapis.com/css?family=Roboto;fontColor=#E6E6E6;labelBackgroundColor=#181B1F;" parent="1" vertex="1">
          <mxGeometry x="60" y="-310" width="60" height="60" as="geometry" />
        </mxCell>
        <mxCell id="ArYwc4VSTUIGlC5Kt4IR-2" value="vpnDUB_01" style="sketch=0;pointerEvents=1;shadow=0;dashed=0;html=1;strokeColor=none;fillColor=#434445;aspect=fixed;labelPosition=center;verticalLabelPosition=bottom;verticalAlign=top;align=center;outlineConnect=0;shape=mxgraph.vvd.vpn;fontSize=35;fontFamily=Roboto;fontSource=https://fonts.googleapis.com/css?family=Roboto;fontColor=#E6E6E6;labelBackgroundColor=#181B1F;" parent="1" vertex="1">
          <mxGeometry x="-870.44" y="430" width="60" height="60" as="geometry" />
        </mxCell>
        <mxCell id="ArYwc4VSTUIGlC5Kt4IR-3" value="vpnDUB_03" style="sketch=0;pointerEvents=1;shadow=0;dashed=0;html=1;strokeColor=none;fillColor=#434445;aspect=fixed;labelPosition=center;verticalLabelPosition=bottom;verticalAlign=top;align=center;outlineConnect=0;shape=mxgraph.vvd.vpn;fontSize=35;fontFamily=Roboto;fontSource=https://fonts.googleapis.com/css?family=Roboto;fontColor=#E6E6E6;labelBackgroundColor=#181B1F;" parent="1" vertex="1">
          <mxGeometry x="-655.44" y="430" width="60" height="60" as="geometry" />
        </mxCell>
        <mxCell id="ArYwc4VSTUIGlC5Kt4IR-4" value="vpnDUB_04" style="sketch=0;pointerEvents=1;shadow=0;dashed=0;html=1;strokeColor=none;fillColor=#434445;aspect=fixed;labelPosition=center;verticalLabelPosition=bottom;verticalAlign=top;align=center;outlineConnect=0;shape=mxgraph.vvd.vpn;fontSize=35;fontFamily=Roboto;fontSource=https://fonts.googleapis.com/css?family=Roboto;fontColor=#E6E6E6;labelBackgroundColor=#181B1F;" parent="1" vertex="1">
          <mxGeometry x="-545.44" y="430" width="60" height="60" as="geometry" />
        </mxCell>
        <mxCell id="ArYwc4VSTUIGlC5Kt4IR-5" value="vpnDUB_02" style="sketch=0;pointerEvents=1;shadow=0;dashed=0;html=1;strokeColor=none;fillColor=#434445;aspect=fixed;labelPosition=center;verticalLabelPosition=bottom;verticalAlign=top;align=center;outlineConnect=0;shape=mxgraph.vvd.vpn;fontSize=35;fontFamily=Roboto;fontSource=https://fonts.googleapis.com/css?family=Roboto;fontColor=#E6E6E6;labelBackgroundColor=#181B1F;" parent="1" vertex="1">
          <mxGeometry x="-765.44" y="430" width="60" height="60" as="geometry" />
        </mxCell>
        <mxCell id="0F72Bn0jdp5sBGRfY1L6-2" value="&lt;b style=&quot;border-color: var(--border-color); font-size: 35px;&quot;&gt;&lt;font style=&quot;border-color: var(--border-color); font-size: 35px;&quot;&gt;OI&lt;/font&gt;&lt;/b&gt;" style="rounded=0;orthogonalLoop=1;jettySize=auto;html=1;strokeWidth=7;endArrow=none;endFill=0;strokeColor=#c2c1c2;shape=link;fontSize=35;fontFamily=Roboto;fontSource=https://fonts.googleapis.com/css?family=Roboto;labelBackgroundColor=#181B1F;entryX=0;entryY=0.75;entryDx=0;entryDy=0;exitX=0.874;exitY=0.706;exitDx=0;exitDy=0;exitPerimeter=0;" edge="1" parent="1" source="0F72Bn0jdp5sBGRfY1L6-4" target="0F72Bn0jdp5sBGRfY1L6-5">
          <mxGeometry relative="1" as="geometry">
            <mxPoint x="-1480" y="-872.5" as="targetPoint" />
            <mxPoint x="-1728" y="-817.5" as="sourcePoint" />
          </mxGeometry>
        </mxCell>
        <mxCell id="0F72Bn0jdp5sBGRfY1L6-3" value="&lt;b style=&quot;border-color: var(--border-color); font-size: 35px;&quot;&gt;&lt;font style=&quot;border-color: var(--border-color); font-size: 35px;&quot;&gt;MVX&lt;/font&gt;&lt;/b&gt;" style="rounded=0;orthogonalLoop=1;jettySize=auto;html=1;strokeWidth=7;endArrow=none;endFill=0;strokeColor=#c2c1c2;shape=link;fontSize=35;fontFamily=Roboto;fontSource=https://fonts.googleapis.com/css?family=Roboto;labelBackgroundColor=#181B1F;entryX=0;entryY=0.25;entryDx=0;entryDy=0;" edge="1" parent="1" source="0F72Bn0jdp5sBGRfY1L6-4" target="0F72Bn0jdp5sBGRfY1L6-5">
          <mxGeometry relative="1" as="geometry">
            <mxPoint x="-1470" y="-870" as="targetPoint" />
          </mxGeometry>
        </mxCell>
        <mxCell id="0F72Bn0jdp5sBGRfY1L6-4" value="&lt;b&gt;FW_ARJ_MEIER&lt;/b&gt;" style="sketch=0;points=[[0.015,0.015,0],[0.985,0.015,0],[0.985,0.985,0],[0.015,0.985,0],[0.25,0,0],[0.5,0,0],[0.75,0,0],[1,0.25,0],[1,0.5,0],[1,0.75,0],[0.75,1,0],[0.5,1,0],[0.25,1,0],[0,0.75,0],[0,0.5,0],[0,0.25,0]];verticalLabelPosition=bottom;html=1;verticalAlign=top;aspect=fixed;align=center;pointerEvents=1;shape=mxgraph.cisco19.rect;prIcon=firewall;fillColor=#FAFAFA;strokeColor=#005073;fontSize=35;fontFamily=Roboto;fontSource=https://fonts.googleapis.com/css?family=Roboto;fontColor=#E6E6E6;labelBackgroundColor=#181B1F;" vertex="1" parent="1">
          <mxGeometry x="-2200" y="-910" width="102.4" height="80" as="geometry" />
        </mxCell>
        <mxCell id="0F72Bn0jdp5sBGRfY1L6-5" value="" style="rounded=1;whiteSpace=wrap;html=1;fillColor=none;strokeWidth=3;strokeColor=#E6E6E6;labelPosition=center;verticalLabelPosition=top;align=center;verticalAlign=bottom;labelBackgroundColor=#181B1F;fontSize=35;" vertex="1" parent="1">
          <mxGeometry x="-1500" y="-1010" width="120" height="290" as="geometry" />
        </mxCell>
        <mxCell id="0F72Bn0jdp5sBGRfY1L6-6" value="&lt;b style=&quot;border-color: var(--border-color); font-size: 35px;&quot;&gt;vpnAPB_01&lt;/b&gt;" style="sketch=0;pointerEvents=1;shadow=0;dashed=0;html=1;strokeColor=none;fillColor=#434445;aspect=fixed;labelPosition=center;verticalLabelPosition=bottom;verticalAlign=top;align=center;outlineConnect=0;shape=mxgraph.vvd.vpn;fontSize=35;fontFamily=Roboto;fontSource=https://fonts.googleapis.com/css?family=Roboto;fontColor=#E6E6E6;labelBackgroundColor=#181B1F;" vertex="1" parent="1">
          <mxGeometry x="-1470" y="-1000" width="60" height="60" as="geometry" />
        </mxCell>
        <mxCell id="0F72Bn0jdp5sBGRfY1L6-7" value="&lt;b style=&quot;border-color: var(--border-color); font-size: 35px;&quot;&gt;vpnAPB_02&lt;/b&gt;" style="sketch=0;pointerEvents=1;shadow=0;dashed=0;html=1;strokeColor=none;fillColor=#434445;aspect=fixed;labelPosition=center;verticalLabelPosition=bottom;verticalAlign=top;align=center;outlineConnect=0;shape=mxgraph.vvd.vpn;fontSize=35;fontFamily=Roboto;fontSource=https://fonts.googleapis.com/css?family=Roboto;fontColor=#E6E6E6;labelBackgroundColor=#181B1F;" vertex="1" parent="1">
          <mxGeometry x="-1470" y="-910" width="60" height="60" as="geometry" />
        </mxCell>
        <mxCell id="0F72Bn0jdp5sBGRfY1L6-8" value="&lt;b style=&quot;border-color: var(--border-color); font-size: 35px;&quot;&gt;vpnAPB_03&lt;/b&gt;" style="sketch=0;pointerEvents=1;shadow=0;dashed=0;html=1;strokeColor=none;fillColor=#434445;aspect=fixed;labelPosition=center;verticalLabelPosition=bottom;verticalAlign=top;align=center;outlineConnect=0;shape=mxgraph.vvd.vpn;fontSize=35;fontFamily=Roboto;fontSource=https://fonts.googleapis.com/css?family=Roboto;fontColor=#E6E6E6;labelBackgroundColor=#181B1F;" vertex="1" parent="1">
          <mxGeometry x="-1470" y="-820" width="60" height="60" as="geometry" />
        </mxCell>
        <mxCell id="0F72Bn0jdp5sBGRfY1L6-10" value="&lt;b style=&quot;border-color: var(--border-color); font-size: 35px;&quot;&gt;&lt;font style=&quot;border-color: var(--border-color); font-size: 35px;&quot;&gt;MVX&lt;/font&gt;&lt;/b&gt;" style="rounded=0;orthogonalLoop=1;jettySize=auto;html=1;strokeWidth=7;endArrow=none;endFill=0;strokeColor=#c2c1c2;shape=link;fontSize=35;fontFamily=Roboto;fontSource=https://fonts.googleapis.com/css?family=Roboto;entryX=0;entryY=0.333;entryDx=0;entryDy=0;entryPerimeter=0;exitX=1.011;exitY=0.368;exitDx=0;exitDy=0;exitPerimeter=0;labelBackgroundColor=#181B1F;" edge="1" parent="1" source="0F72Bn0jdp5sBGRfY1L6-11" target="0F72Bn0jdp5sBGRfY1L6-13">
          <mxGeometry relative="1" as="geometry">
            <mxPoint x="-1492.2" y="806" as="targetPoint" />
            <mxPoint x="-1772.1999999999998" y="800" as="sourcePoint" />
          </mxGeometry>
        </mxCell>
        <mxCell id="0F72Bn0jdp5sBGRfY1L6-11" value="&lt;b style=&quot;border-color: var(--border-color); font-size: 35px;&quot;&gt;FW_ARJ_VCG_BONSUCESSO&lt;/b&gt;" style="sketch=0;points=[[0.015,0.015,0],[0.985,0.015,0],[0.985,0.985,0],[0.015,0.985,0],[0.25,0,0],[0.5,0,0],[0.75,0,0],[1,0.25,0],[1,0.5,0],[1,0.75,0],[0.75,1,0],[0.5,1,0],[0.25,1,0],[0,0.75,0],[0,0.5,0],[0,0.25,0]];verticalLabelPosition=bottom;html=1;verticalAlign=top;aspect=fixed;align=center;pointerEvents=1;shape=mxgraph.cisco19.rect;prIcon=firewall;fillColor=#FAFAFA;strokeColor=#005073;fontSize=35;fontFamily=Roboto;fontSource=https://fonts.googleapis.com/css?family=Roboto;fontColor=#E6E6E6;labelBackgroundColor=#181B1F;" vertex="1" parent="1">
          <mxGeometry x="-2210" y="890" width="102.4" height="80" as="geometry" />
        </mxCell>
        <mxCell id="0F72Bn0jdp5sBGRfY1L6-13" value="" style="sketch=0;pointerEvents=1;shadow=0;dashed=0;html=1;strokeColor=none;fillColor=#434445;aspect=fixed;labelPosition=center;verticalLabelPosition=bottom;verticalAlign=top;align=center;outlineConnect=0;shape=mxgraph.vvd.vpn;fontSize=35;fontFamily=Roboto;fontSource=https://fonts.googleapis.com/css?family=Roboto;fontColor=#E6E6E6;labelBackgroundColor=#181B1F;" vertex="1" parent="1">
          <mxGeometry x="-1470" y="900" width="60" height="60" as="geometry" />
        </mxCell>
        <mxCell id="0F72Bn0jdp5sBGRfY1L6-15" value="&lt;b style=&quot;border-color: var(--border-color); font-size: 35px;&quot;&gt;&lt;font style=&quot;border-color: var(--border-color); font-size: 35px;&quot;&gt;MVX&lt;/font&gt;&lt;/b&gt;" style="rounded=0;orthogonalLoop=1;jettySize=auto;html=1;strokeWidth=7;endArrow=none;endFill=0;strokeColor=#c2c1c2;shape=link;fontSize=35;fontFamily=Roboto;fontSource=https://fonts.googleapis.com/css?family=Roboto;entryX=0;entryY=0.333;entryDx=0;entryDy=0;entryPerimeter=0;exitX=1.011;exitY=0.368;exitDx=0;exitDy=0;exitPerimeter=0;labelBackgroundColor=#181B1F;" edge="1" parent="1" source="0F72Bn0jdp5sBGRfY1L6-16" target="0F72Bn0jdp5sBGRfY1L6-17">
          <mxGeometry relative="1" as="geometry">
            <mxPoint x="-1492.2" y="1066" as="targetPoint" />
            <mxPoint x="-1772.1999999999998" y="1060" as="sourcePoint" />
          </mxGeometry>
        </mxCell>
        <mxCell id="0F72Bn0jdp5sBGRfY1L6-16" value="&lt;b style=&quot;border-color: var(--border-color); font-size: 35px;&quot;&gt;FW_ARJ_VCG_SAO_CRISTOVAO&lt;/b&gt;" style="sketch=0;points=[[0.015,0.015,0],[0.985,0.015,0],[0.985,0.985,0],[0.015,0.985,0],[0.25,0,0],[0.5,0,0],[0.75,0,0],[1,0.25,0],[1,0.5,0],[1,0.75,0],[0.75,1,0],[0.5,1,0],[0.25,1,0],[0,0.75,0],[0,0.5,0],[0,0.25,0]];verticalLabelPosition=bottom;html=1;verticalAlign=top;aspect=fixed;align=center;pointerEvents=1;shape=mxgraph.cisco19.rect;prIcon=firewall;fillColor=#FAFAFA;strokeColor=#005073;fontSize=35;fontFamily=Roboto;fontSource=https://fonts.googleapis.com/css?family=Roboto;fontColor=#E6E6E6;labelBackgroundColor=#181B1F;" vertex="1" parent="1">
          <mxGeometry x="-2210" y="1150" width="102.4" height="80" as="geometry" />
        </mxCell>
        <mxCell id="0F72Bn0jdp5sBGRfY1L6-17" value="" style="sketch=0;pointerEvents=1;shadow=0;dashed=0;html=1;strokeColor=none;fillColor=#434445;aspect=fixed;labelPosition=center;verticalLabelPosition=bottom;verticalAlign=top;align=center;outlineConnect=0;shape=mxgraph.vvd.vpn;fontSize=35;fontFamily=Roboto;fontSource=https://fonts.googleapis.com/css?family=Roboto;fontColor=#E6E6E6;labelBackgroundColor=#181B1F;" vertex="1" parent="1">
          <mxGeometry x="-1480" y="1160" width="60" height="60" as="geometry" />
        </mxCell>
      </root>
    </mxGraphModel>
  </diagram>
</mxfile>
